<?xml version="1.0" encoding="UTF-8"?>
<svg version="1.1" xmlns="http://www.w3.org/2000/svg" width="698" height="698">
<path d="M0 0 C2.88622654 0.00462406 5.77203098 -0.00227402 8.65820312 -0.02050781 C24.9577397 -0.12254023 40.91047855 0.17344439 57.02719116 2.95004272 C59.87652114 3.43964936 62.73630119 3.85154453 65.59643555 4.27270508 C77.63444337 6.23219702 89.20038919 9.05682316 100.85864258 12.6237793 C102.93887323 13.25054665 105.02366246 13.84270989 107.11987305 14.41333008 C115.01682829 16.56863167 122.56490119 19.25785168 130.1550293 22.31567383 C131.34418945 22.77393555 131.34418945 22.77393555 132.55737305 23.24145508 C165.40191309 35.9862595 195.3924241 53.70915729 223.1550293 75.31567383 C223.73526855 75.76668457 224.31550781 76.21769531 224.91333008 76.68237305 C231.67856378 81.97562379 231.67856378 81.97562379 234.1550293 84.31567383 C234.1550293 84.97567383 234.1550293 85.63567383 234.1550293 86.31567383 C235.0522168 86.74879883 235.0522168 86.74879883 235.9675293 87.19067383 C238.1550293 88.31567383 238.1550293 88.31567383 241.1550293 90.31567383 C241.1550293 90.97567383 241.1550293 91.63567383 241.1550293 92.31567383 C242.1450293 92.64567383 243.1350293 92.97567383 244.1550293 93.31567383 C244.1550293 93.97567383 244.1550293 94.63567383 244.1550293 95.31567383 C244.8150293 95.31567383 245.4750293 95.31567383 246.1550293 95.31567383 C246.1550293 95.97567383 246.1550293 96.63567383 246.1550293 97.31567383 C246.72737305 97.56317383 247.2997168 97.81067383 247.8894043 98.06567383 C250.50513541 99.50883582 252.30276386 101.19783605 254.4050293 103.31567383 C255.46463867 104.36754883 255.46463867 104.36754883 256.5456543 105.44067383 C258.1550293 107.31567383 258.1550293 107.31567383 258.1550293 109.31567383 C258.8150293 109.31567383 259.4750293 109.31567383 260.1550293 109.31567383 C260.1550293 109.97567383 260.1550293 110.63567383 260.1550293 111.31567383 C260.8150293 111.31567383 261.4750293 111.31567383 262.1550293 111.31567383 C262.1550293 111.97567383 262.1550293 112.63567383 262.1550293 113.31567383 C262.8150293 113.31567383 263.4750293 113.31567383 264.1550293 113.31567383 C265.74036632 115.02900136 267.25044144 116.8125643 268.7175293 118.62817383 C269.92602539 120.10737305 269.92602539 120.10737305 271.15893555 121.61645508 C273.1550293 124.31567383 273.1550293 124.31567383 274.1550293 127.31567383 C274.8150293 127.31567383 275.4750293 127.31567383 276.1550293 127.31567383 C276.8150293 128.96567383 277.4750293 130.61567383 278.1550293 132.31567383 C278.8150293 132.31567383 279.4750293 132.31567383 280.1550293 132.31567383 C281.95329375 134.5738223 283.62970939 136.82845122 285.2800293 139.19067383 C285.74795898 139.84165039 286.21588867 140.49262695 286.69799805 141.16333008 C290.1550293 146.05155211 290.1550293 146.05155211 290.1550293 148.31567383 C290.8150293 148.31567383 291.4750293 148.31567383 292.1550293 148.31567383 C293.29663086 149.80932617 293.29663086 149.80932617 294.5456543 151.90161133 C295.00496338 152.66280273 295.46427246 153.42399414 295.9375 154.20825195 C296.663927 155.43705078 296.663927 155.43705078 297.4050293 156.69067383 C297.90156006 157.51760742 298.39809082 158.34454102 298.90966797 159.1965332 C300.33098779 161.56594244 301.74350273 163.94042261 303.1550293 166.31567383 C304.25853444 168.14940542 305.3625273 169.98284385 306.4675293 171.81567383 C306.88301025 172.51466797 307.29849121 173.21366211 307.7265625 173.93383789 C308.64923892 175.47231527 309.58438987 177.00341067 310.53442383 178.52514648 C314.45794998 184.8684685 317.66594848 191.39100303 320.7175293 198.19067383 C321.40105469 199.68920898 321.40105469 199.68920898 322.09838867 201.21801758 C327.18037303 212.42296175 331.88350801 223.77719338 336.1550293 235.31567383 C336.54432617 236.35079102 336.93362305 237.3859082 337.3347168 238.45239258 C343.50001038 255.79983628 347.51608828 274.10492065 350.4675293 292.25317383 C350.68807983 293.59581299 350.68807983 293.59581299 350.91308594 294.96557617 C353.50496229 312.04378421 354.49149066 329.16201965 354.41577148 346.42016602 C354.40503092 349.31523557 354.41576492 352.209685 354.4284668 355.10473633 C354.44179714 372.28936608 353.25849438 389.4080685 350.4675293 406.37817383 C350.30019287 407.3972583 350.13285645 408.41634277 349.96044922 409.46630859 C346.12876082 431.76420869 340.0107998 453.1247329 332.1550293 474.31567383 C331.6751726 475.64224735 331.19589462 476.96903054 330.7175293 478.29614258 C322.7324412 499.86113379 311.13829464 519.77811658 299.1550293 539.31567383 C298.76444336 539.95988281 298.37385742 540.6040918 297.97143555 541.26782227 C296.99883382 542.87190259 296.01501867 544.46917022 295.0300293 546.06567383 C294.25272461 547.32637695 294.25272461 547.32637695 293.4597168 548.61254883 C293.02916992 549.17458008 292.59862305 549.73661133 292.1550293 550.31567383 C291.4950293 550.31567383 290.8350293 550.31567383 290.1550293 550.31567383 C289.9075293 551.02079102 289.6600293 551.7259082 289.4050293 552.45239258 C287.99399271 555.68454826 286.2299567 558.27896285 284.1550293 561.12817383 C283.4537793 562.10399414 282.7525293 563.07981445 282.0300293 564.08520508 C281.4112793 564.82125977 280.7925293 565.55731445 280.1550293 566.31567383 C279.4950293 566.31567383 278.8350293 566.31567383 278.1550293 566.31567383 C277.4950293 567.96567383 276.8350293 569.61567383 276.1550293 571.31567383 C275.4950293 571.31567383 274.8350293 571.31567383 274.1550293 571.31567383 C273.9075293 571.86739258 273.6600293 572.41911133 273.4050293 572.98754883 C271.91268456 575.7670409 270.11830406 578.09714453 268.1550293 580.56567383 C267.1031543 581.9037207 267.1031543 581.9037207 266.0300293 583.26879883 C265.4112793 583.94426758 264.7925293 584.61973633 264.1550293 585.31567383 C263.4950293 585.31567383 262.8350293 585.31567383 262.1550293 585.31567383 C262.1550293 585.97567383 262.1550293 586.63567383 262.1550293 587.31567383 C261.4950293 587.31567383 260.8350293 587.31567383 260.1550293 587.31567383 C260.1550293 587.97567383 260.1550293 588.63567383 260.1550293 589.31567383 C259.4950293 589.31567383 258.8350293 589.31567383 258.1550293 589.31567383 C257.9075293 589.88801758 257.6600293 590.46036133 257.4050293 591.05004883 C255.9618673 593.66577994 254.27286707 595.46340839 252.1550293 597.56567383 C251.4537793 598.27208008 250.7525293 598.97848633 250.0300293 599.70629883 C248.1550293 601.31567383 248.1550293 601.31567383 246.1550293 601.31567383 C246.1550293 601.97567383 246.1550293 602.63567383 246.1550293 603.31567383 C245.4950293 603.31567383 244.8350293 603.31567383 244.1550293 603.31567383 C243.8250293 604.30567383 243.4950293 605.29567383 243.1550293 606.31567383 C242.4950293 606.31567383 241.8350293 606.31567383 241.1550293 606.31567383 C241.1550293 606.97567383 241.1550293 607.63567383 241.1550293 608.31567383 C236.68444106 612.31567383 236.68444106 612.31567383 234.1550293 612.31567383 C233.8250293 613.30567383 233.4950293 614.29567383 233.1550293 615.31567383 C231.3269043 617.00708008 231.3269043 617.00708008 228.9050293 618.87817383 C227.99624023 619.58329102 227.08745117 620.2884082 226.15112305 621.01489258 C225.16241211 621.77415039 224.17370117 622.5334082 223.1550293 623.31567383 C222.15600586 624.10586914 221.15698242 624.89606445 220.12768555 625.71020508 C207.17167391 635.92337776 193.29183789 644.62258786 179.16040039 653.10522461 C177.44800742 654.13883118 175.74748853 655.19206713 174.04956055 656.24926758 C165.55119583 661.43938312 156.50594992 665.33580422 147.40161133 669.3215332 C144.58941302 670.5659661 141.81066676 671.87748515 139.0300293 673.19067383 C135.01589898 675.02552591 131.00203098 676.34945005 126.75244141 677.52612305 C124.27277436 678.27988216 121.94870531 679.18223453 119.5612793 680.18676758 C114.04126235 682.42180077 108.43653055 684.16659942 102.7175293 685.81567383 C101.67201904 686.11828125 100.62650879 686.42088867 99.54931641 686.73266602 C90.16512026 689.39896369 80.74032737 691.52280136 71.1550293 693.31567383 C70.0714917 693.52401855 70.0714917 693.52401855 68.96606445 693.73657227 C68.25111816 693.87353516 67.53617187 694.01049805 66.79956055 694.15161133 C66.17799072 694.27068848 65.5564209 694.38976562 64.91601562 694.51245117 C61.33567519 695.15502941 57.74603414 695.73611381 54.1550293 696.31567383 C53.03136963 696.50073486 51.90770996 696.6857959 50.75 696.87646484 C36.99667073 698.80451906 23.16834747 698.65544304 9.31005859 698.63134766 C6.42383205 698.62672359 3.53802762 698.63362168 0.65185547 698.65185547 C-15.64768111 698.75388789 -31.60041996 698.45790327 -47.71713257 695.68130493 C-50.56646254 695.1916983 -53.4262426 694.77980313 -56.28637695 694.35864258 C-69.12264868 692.26940878 -81.42655586 689.14929104 -93.8449707 685.31567383 C-95.02188477 684.96504883 -96.19879883 684.61442383 -97.41137695 684.25317383 C-100.56676733 683.30537196 -103.70662923 682.31845749 -106.8449707 681.31567383 C-107.53155762 681.09943359 -108.21814453 680.88319336 -108.92553711 680.66040039 C-118.19019088 677.73091325 -127.11732176 674.57794141 -135.85327148 670.28051758 C-138.25304989 669.11798702 -140.67139166 667.99870207 -143.09106445 666.87817383 C-155.7447152 660.98160674 -167.9165906 654.56664386 -179.8449707 647.31567383 C-180.60696777 646.86675781 -181.36896484 646.4178418 -182.15405273 645.95532227 C-183.25595947 645.2945166 -183.25595947 645.2945166 -184.38012695 644.62036133 C-185.04536377 644.22574707 -185.71060059 643.83113281 -186.39599609 643.42456055 C-186.87415771 643.05862793 -187.35231934 642.69269531 -187.8449707 642.31567383 C-187.8449707 641.65567383 -187.8449707 640.99567383 -187.8449707 640.31567383 C-188.36833008 640.24477539 -188.89168945 640.17387695 -189.4309082 640.10083008 C-192.88841611 638.97630081 -195.57123864 636.88356727 -198.4699707 634.75317383 C-199.09025146 634.30353271 -199.71053223 633.8538916 -200.34960938 633.390625 C-204.83628101 630.11531414 -209.21199571 626.71875288 -213.51293945 623.20239258 C-216.68599671 620.63524575 -219.95333872 618.19699174 -223.2277832 615.76098633 C-223.76145508 615.2840332 -224.29512695 614.80708008 -224.8449707 614.31567383 C-224.8449707 613.65567383 -224.8449707 612.99567383 -224.8449707 612.31567383 C-225.4430957 612.02692383 -226.0412207 611.73817383 -226.6574707 611.44067383 C-228.8449707 610.31567383 -228.8449707 610.31567383 -231.8449707 608.31567383 C-231.8449707 607.65567383 -231.8449707 606.99567383 -231.8449707 606.31567383 C-232.8349707 605.98567383 -233.8249707 605.65567383 -234.8449707 605.31567383 C-234.8449707 604.65567383 -234.8449707 603.99567383 -234.8449707 603.31567383 C-235.5049707 603.31567383 -236.1649707 603.31567383 -236.8449707 603.31567383 C-236.8449707 602.65567383 -236.8449707 601.99567383 -236.8449707 601.31567383 C-237.41731445 601.06817383 -237.9896582 600.82067383 -238.5793457 600.56567383 C-241.19507682 599.12251183 -242.99270526 597.4335116 -245.0949707 595.31567383 C-245.80137695 594.61442383 -246.5077832 593.91317383 -247.2355957 593.19067383 C-248.8449707 591.31567383 -248.8449707 591.31567383 -248.8449707 589.31567383 C-249.5049707 589.31567383 -250.1649707 589.31567383 -250.8449707 589.31567383 C-250.8449707 588.65567383 -250.8449707 587.99567383 -250.8449707 587.31567383 C-251.5049707 587.31567383 -252.1649707 587.31567383 -252.8449707 587.31567383 C-252.8449707 586.65567383 -252.8449707 585.99567383 -252.8449707 585.31567383 C-253.5049707 585.31567383 -254.1649707 585.31567383 -254.8449707 585.31567383 C-256.43030773 583.60234629 -257.94038285 581.81878335 -259.4074707 580.00317383 C-260.21313477 579.01704102 -261.01879883 578.0309082 -261.84887695 577.01489258 C-263.8449707 574.31567383 -263.8449707 574.31567383 -264.8449707 571.31567383 C-265.5049707 571.31567383 -266.1649707 571.31567383 -266.8449707 571.31567383 C-267.5049707 569.66567383 -268.1649707 568.01567383 -268.8449707 566.31567383 C-269.5049707 566.31567383 -270.1649707 566.31567383 -270.8449707 566.31567383 C-272.64323515 564.05752535 -274.3196508 561.80289643 -275.9699707 559.44067383 C-276.43790039 558.78969727 -276.90583008 558.1387207 -277.38793945 557.46801758 C-280.8449707 552.57979555 -280.8449707 552.57979555 -280.8449707 550.31567383 C-281.5049707 550.31567383 -282.1649707 550.31567383 -282.8449707 550.31567383 C-283.98657227 548.82202148 -283.98657227 548.82202148 -285.2355957 546.72973633 C-285.69490479 545.96854492 -286.15421387 545.20735352 -286.62744141 544.4230957 C-287.11172607 543.60389648 -287.59601074 542.78469727 -288.0949707 541.94067383 C-288.83976685 540.70027344 -288.83976685 540.70027344 -289.59960938 539.43481445 C-291.0209292 537.06540521 -292.43344414 534.69092504 -293.8449707 532.31567383 C-294.94847585 530.48194224 -296.05246871 528.64850381 -297.1574707 526.81567383 C-297.78069214 525.76718262 -297.78069214 525.76718262 -298.41650391 524.69750977 C-299.33918033 523.15903239 -300.27433127 521.62793699 -301.22436523 520.10620117 C-305.14789138 513.76287916 -308.35588989 507.24034463 -311.4074707 500.44067383 C-312.09099609 498.94213867 -312.09099609 498.94213867 -312.78833008 497.41333008 C-317.87031444 486.2083859 -322.57344942 474.85415428 -326.8449707 463.31567383 C-327.23426758 462.28055664 -327.62356445 461.24543945 -328.0246582 460.17895508 C-338.62815539 430.34362475 -343.98538196 398.28615053 -344.01293945 366.67895508 C-344.01616798 365.30576038 -344.01953312 363.932566 -344.02302551 362.55937195 C-344.02896083 359.6995667 -344.03087128 356.83979142 -344.03027344 353.97998047 C-344.0301923 351.08766409 -344.03712413 348.19550651 -344.05078125 345.30322266 C-344.12257239 329.86940101 -344.1102137 314.61770983 -341.8449707 299.31567383 C-341.64002704 297.61161917 -341.43764238 295.90725168 -341.23950195 294.20239258 C-338.30471142 272.14412824 -332.55183394 250.61820181 -324.77075195 229.79760742 C-323.91137661 227.4937019 -323.07688551 225.18261252 -322.2512207 222.86645508 C-314.14020491 200.3293422 -302.33168751 179.67406009 -289.8449707 159.31567383 C-289.45438477 158.67146484 -289.06379883 158.02725586 -288.66137695 157.36352539 C-287.68877522 155.75944507 -286.70496007 154.16217743 -285.7199707 152.56567383 C-285.20176758 151.72520508 -284.68356445 150.88473633 -284.1496582 150.01879883 C-283.71911133 149.45676758 -283.28856445 148.89473633 -282.8449707 148.31567383 C-282.1849707 148.31567383 -281.5249707 148.31567383 -280.8449707 148.31567383 C-280.5974707 147.61055664 -280.3499707 146.90543945 -280.0949707 146.17895508 C-278.68393412 142.9467994 -276.91989811 140.3523848 -274.8449707 137.50317383 C-274.1437207 136.52735352 -273.4424707 135.5515332 -272.7199707 134.54614258 C-272.1012207 133.81008789 -271.4824707 133.0740332 -270.8449707 132.31567383 C-270.1849707 132.31567383 -269.5249707 132.31567383 -268.8449707 132.31567383 C-268.1849707 130.66567383 -267.5249707 129.01567383 -266.8449707 127.31567383 C-266.1849707 127.31567383 -265.5249707 127.31567383 -264.8449707 127.31567383 C-264.5974707 126.76395508 -264.3499707 126.21223633 -264.0949707 125.64379883 C-262.60262597 122.86430675 -260.80824547 120.53420313 -258.8449707 118.06567383 C-258.1437207 117.17364258 -257.4424707 116.28161133 -256.7199707 115.36254883 C-256.1012207 114.68708008 -255.4824707 114.01161133 -254.8449707 113.31567383 C-254.1849707 113.31567383 -253.5249707 113.31567383 -252.8449707 113.31567383 C-252.8449707 112.65567383 -252.8449707 111.99567383 -252.8449707 111.31567383 C-252.1849707 111.31567383 -251.5249707 111.31567383 -250.8449707 111.31567383 C-250.8449707 110.65567383 -250.8449707 109.99567383 -250.8449707 109.31567383 C-250.1849707 109.31567383 -249.5249707 109.31567383 -248.8449707 109.31567383 C-248.4737207 108.4571582 -248.4737207 108.4571582 -248.0949707 107.58129883 C-246.65180871 104.96556771 -244.96280848 103.16793927 -242.8449707 101.06567383 C-241.7930957 100.00606445 -241.7930957 100.00606445 -240.7199707 98.92504883 C-238.8449707 97.31567383 -238.8449707 97.31567383 -236.8449707 97.31567383 C-236.8449707 96.65567383 -236.8449707 95.99567383 -236.8449707 95.31567383 C-236.1849707 95.31567383 -235.5249707 95.31567383 -234.8449707 95.31567383 C-234.3499707 93.83067383 -234.3499707 93.83067383 -233.8449707 92.31567383 C-233.1849707 92.31567383 -232.5249707 92.31567383 -231.8449707 92.31567383 C-231.8449707 91.65567383 -231.8449707 90.99567383 -231.8449707 90.31567383 C-227.37438247 86.31567383 -227.37438247 86.31567383 -224.8449707 86.31567383 C-224.3499707 84.83067383 -224.3499707 84.83067383 -223.8449707 83.31567383 C-222.0168457 81.62426758 -222.0168457 81.62426758 -219.5949707 79.75317383 C-218.69262695 79.05192383 -217.7902832 78.35067383 -216.8605957 77.62817383 C-215.86543945 76.86504883 -214.8702832 76.10192383 -213.8449707 75.31567383 C-212.77663932 74.48313939 -211.70894465 73.64978736 -210.6418457 72.81567383 C-192.03337404 58.31567383 -192.03337404 58.31567383 -187.8449707 58.31567383 C-187.8449707 57.65567383 -187.8449707 56.99567383 -187.8449707 56.31567383 C-186.37402344 55.17749023 -186.37402344 55.17749023 -184.27856445 53.91723633 C-183.49473389 53.44382813 -182.71090332 52.97041992 -181.90332031 52.48266602 C-181.03843994 51.97380859 -180.17355957 51.46495117 -179.2824707 50.94067383 C-178.38858643 50.41119141 -177.49470215 49.88170898 -176.57373047 49.33618164 C-160.83065414 40.11447825 -144.74522988 31.87249978 -127.796875 25.10668945 C-125.98393557 24.3719898 -124.18887284 23.59359265 -122.39575195 22.81176758 C-102.93973468 14.61412774 -82.52630803 9.31088239 -61.8449707 5.31567383 C-61.11391113 5.17387695 -60.38285156 5.03208008 -59.62963867 4.88598633 C-54.71386655 3.94521116 -49.78580197 3.11341203 -44.8449707 2.31567383 C-43.1594812 2.03808228 -43.1594812 2.03808228 -41.43994141 1.75488281 C-27.68661214 -0.1731714 -13.85828887 -0.02409539 0 0 Z " fill="#FEFEFE" transform="translate(343.844970703125,-0.315673828125)"/>
<path d="M0 0 C2.22602615 0.76939681 2.22602615 0.76939681 4 1 C4 1.66 4 2.32 4 3 C4.82371094 3.23460937 5.64742188 3.46921875 6.49609375 3.7109375 C10.6788099 5.24972939 14.25918877 7.32660851 18.0625 9.625 C18.80838379 10.0694043 19.55426758 10.51380859 20.32275391 10.97167969 C25.81557647 14.25444894 31.26434689 17.60652478 36.6796875 21.015625 C39.47412536 22.68571257 42.28677828 24.25886925 45.1484375 25.80859375 C51.08635375 29.02525815 56.923292 32.39940319 62.75 35.8125 C63.79188477 36.42053467 64.83376953 37.02856934 65.90722656 37.6550293 C70.54053276 40.36424432 75.1644793 43.08554114 79.75 45.875 C80.43739258 46.29289795 81.12478516 46.7107959 81.83300781 47.14135742 C83.06979553 47.89694462 84.3037529 48.65719375 85.53417969 49.4230957 C88.31138529 51.12345101 90.76674267 52.45850787 94 53 C94 53.66 94 54.32 94 55 C95.134375 55.28875 96.26875 55.5775 97.4375 55.875 C99.2009375 56.431875 99.2009375 56.431875 101 57 C101.33 57.66 101.66 58.32 102 59 C104.02463255 59.65213292 104.02463255 59.65213292 106 60 C106 60.66 106 61.32 106 62 C106.680625 62.2475 107.36125 62.495 108.0625 62.75 C110.93013508 63.97027025 113.4948786 65.39313425 116.15625 67 C118.04890208 68.08263857 118.04890208 68.08263857 120.41015625 68.89453125 C129.21958483 72.65481525 137.20270347 80.79861268 141.375 89.375 C144.47825499 97.90243179 144.5535717 108.89865417 141.4375 117.4375 C140.67905189 118.98599822 139.86432495 120.5080105 139 122 C138.525625 122.85078125 138.05125 123.7015625 137.5625 124.578125 C133.28672426 131.44403412 128.09901608 135.26913023 121 139 C120.35417969 139.3609375 119.70835937 139.721875 119.04296875 140.09375 C110.62756074 144.053942 99.8060754 143.02725651 91.27807617 139.96289062 C87.43334979 138.33781284 83.92274108 136.24897413 80.375 134.0625 C78.94552857 133.19886101 77.51584342 132.33557567 76.0859375 131.47265625 C75.4062793 131.05902832 74.72662109 130.64540039 74.02636719 130.21923828 C71.04691223 128.42653972 68.02652008 126.7118506 65 125 C65 124.34 65 123.68 65 123 C64.21625 122.855625 63.4325 122.71125 62.625 122.5625 C60 122 60 122 58 121 C58 120.34 58 119.68 58 119 C57.319375 118.9175 56.63875 118.835 55.9375 118.75 C52.1253093 117.77667472 49.35929671 116.04192545 46 114 C46 113.34 46 112.68 46 112 C45.21625 111.855625 44.4325 111.71125 43.625 111.5625 C41 111 41 111 39 110 C39 109.34 39 108.68 39 108 C37.35 107.67 35.7 107.34 34 107 C34 106.34 34 105.68 34 105 C33.27433838 104.88696533 32.54867676 104.77393066 31.80102539 104.6574707 C28.87044432 103.96959004 26.79053981 102.97048556 24.18359375 101.48046875 C22.80337036 100.69700073 22.80337036 100.69700073 21.39526367 99.89770508 C20.41920166 99.3333374 19.44313965 98.76896973 18.4375 98.1875 C17.42985596 97.61088623 16.42221191 97.03427246 15.3840332 96.44018555 C8.45063162 92.45645156 1.55467185 88.4092737 -5.3125 84.3125 C-6.15949463 83.80807373 -7.00648926 83.30364746 -7.87915039 82.78393555 C-8.65766357 82.31511963 -9.43617676 81.84630371 -10.23828125 81.36328125 C-10.91930908 80.95376221 -11.60033691 80.54424316 -12.30200195 80.12231445 C-14 79 -14 79 -16 77 C-18.31808364 75.96514123 -20.65175298 74.9644586 -23 74 C-23.99 73.505 -23.99 73.505 -25 73 C-25 72.34 -25 71.68 -25 71 C-25.6496875 70.93425781 -26.299375 70.86851562 -26.96875 70.80078125 C-31.26538858 69.66571565 -34.71478967 67.47235494 -38.5 65.1875 C-39.24636719 64.74857422 -39.99273437 64.30964844 -40.76171875 63.85742188 C-48.91341955 59.00247087 -53.86223323 53.97449581 -59 46 C-59.44085938 45.37222656 -59.88171875 44.74445313 -60.3359375 44.09765625 C-64.3232453 37.63595532 -63.37850743 30.32049484 -63 23 C-62.99097656 22.20980469 -62.98195313 21.41960937 -62.97265625 20.60546875 C-62.52160644 11.74685057 -56.11072894 4.4720218 -49.9296875 -1.3125 C-35.21532777 -14.18011822 -14.95099849 -10.46569894 0 0 Z " fill="#4385F3" transform="translate(177,320)"/>
<path d="M0 0 C2.15496031 1.2410374 4.28397763 2.52902331 6.375 3.875 C7.19097656 4.39964844 8.00695312 4.92429688 8.84765625 5.46484375 C10.25963703 6.40367401 11.66194015 7.35734364 13.05078125 8.33007812 C15.40185937 9.89285358 17.78767873 11.23654517 20.27734375 12.56640625 C26.3858291 15.86591348 32.42612831 19.27960953 38.45361328 22.72412109 C40.23987856 23.74421986 42.0280914 24.76084342 43.81640625 25.77734375 C50.86462699 29.79671293 57.79262202 33.95462482 64.63720703 38.31298828 C66.98048744 39.64991606 68.74312259 40.42730546 71.375 40.875 C71.375 41.535 71.375 42.195 71.375 42.875 C73.685 43.535 75.995 44.195 78.375 44.875 C78.375 45.535 78.375 46.195 78.375 46.875 C79.055625 47.143125 79.73625 47.41125 80.4375 47.6875 C83.77210809 49.03553306 87.07243237 50.45036298 90.375 51.875 C90.375 52.535 90.375 53.195 90.375 53.875 C91.24125 54.1225 92.1075 54.37 93 54.625 C96.57205236 55.94798235 99.23673474 57.73830876 102.375 59.875 C103.17566895 60.19009521 103.97633789 60.50519043 104.80126953 60.82983398 C107.32479835 61.85461362 109.27011352 63.03649192 111.4921875 64.59765625 C114.8635599 66.89898437 118.27934141 69.02743087 121.8203125 71.05859375 C122.75230469 71.59419922 123.68429687 72.12980469 124.64453125 72.68164062 C126.55239617 73.77128988 128.46389117 74.85460704 130.37890625 75.93164062 C137.76416283 80.19788108 144.22730566 84.8361526 148.25 92.5625 C148.63929688 93.28824219 149.02859375 94.01398438 149.4296875 94.76171875 C153.11933887 103.0100716 152.9353413 115.98981391 149.8125 124.4375 C145.55954752 133.07723912 139.82813766 139.2857553 131.375 143.875 C130.61445312 144.28878906 129.85390625 144.70257813 129.0703125 145.12890625 C121.39606029 148.73957901 112.5716025 149.33059285 104.390625 147.0390625 C103.39546875 146.65492188 102.4003125 146.27078125 101.375 145.875 C100.3540625 145.48570312 99.333125 145.09640625 98.28125 144.6953125 C92.5703514 142.19366339 87.25166627 138.88706417 81.875 135.75 C80.70448263 135.07080889 79.53382743 134.39185526 78.36303711 133.71313477 C71.59964683 129.78605619 64.8710355 125.80476965 58.18408203 121.74902344 C53.77425565 119.0838145 49.28931369 116.58636337 44.7421875 114.1640625 C39.66754079 111.40064103 39.66754079 111.40064103 37.375 109.875 C37.375 109.215 37.375 108.555 37.375 107.875 C36.59125 107.730625 35.8075 107.58625 35 107.4375 C32.375 106.875 32.375 106.875 30.375 105.875 C30.375 105.215 30.375 104.555 30.375 103.875 C29.59125 103.730625 28.8075 103.58625 28 103.4375 C25.375 102.875 25.375 102.875 23.375 101.875 C23.375 101.215 23.375 100.555 23.375 99.875 C21.725 99.545 20.075 99.215 18.375 98.875 C18.375 98.215 18.375 97.555 18.375 96.875 C17.59125 96.730625 16.8075 96.58625 16 96.4375 C13.375 95.875 13.375 95.875 11.375 94.875 C11.375 94.215 11.375 93.555 11.375 92.875 C10.64788818 92.76124023 9.92077637 92.64748047 9.17163086 92.53027344 C6.26488989 91.8492003 4.21242198 90.87020135 1.62890625 89.390625 C0.71963379 88.8740332 -0.18963867 88.35744141 -1.12646484 87.82519531 C-2.09535645 87.26413086 -3.06424805 86.70306641 -4.0625 86.125 C-5.07006348 85.54588867 -6.07762695 84.96677734 -7.11572266 84.37011719 C-9.22762648 83.15364481 -11.33762254 81.93385503 -13.44580078 80.7109375 C-16.52452519 78.93302262 -19.61761481 77.18292751 -22.71484375 75.4375 C-24.64379776 74.33432696 -26.57220458 73.23019644 -28.5 72.125 C-29.38357178 71.63161133 -30.26714355 71.13822266 -31.17749023 70.62988281 C-42.66826959 63.95746453 -49.24828233 55.71878437 -53.9375 43.4375 C-55.98182808 32.84416361 -54.68847752 22.37044069 -48.9375 13.125 C-37.61849206 -2.58645878 -17.69206793 -8.73039953 0 0 Z " fill="#119D58" transform="translate(430.625,238.125)"/>
<path d="M0 0 C1.97265625 1.1171875 1.97265625 1.1171875 3.8125 2.375 C4.49183594 2.81070313 5.17117188 3.24640625 5.87109375 3.6953125 C13.98173436 9.30683323 20.69006083 16.53345172 22.8125 26.375 C23.69218894 34.7797639 24.05748698 43.84095822 19.8125 51.375 C19.43351563 52.17035156 19.05453125 52.96570313 18.6640625 53.78515625 C12.89014002 64.84905973 1.93636044 70.06856516 -8.5246582 76.05078125 C-9.22937256 76.45425781 -9.93408691 76.85773438 -10.66015625 77.2734375 C-11.29187744 77.63099121 -11.92359863 77.98854492 -12.57446289 78.35693359 C-14.3613501 79.40180952 -14.3613501 79.40180952 -16.1875 81.375 C-17.86713877 82.09955006 -19.5484533 82.82076024 -21.2421875 83.51171875 C-23.25533564 84.40510377 -25.10561824 85.44093088 -27 86.5625 C-30.1875 88.375 -30.1875 88.375 -32.1875 88.375 C-32.1875 89.035 -32.1875 89.695 -32.1875 90.375 C-33.07179688 90.7153125 -33.95609375 91.055625 -34.8671875 91.40625 C-40.96032818 94.01891022 -46.59742605 97.53711826 -52.3125 100.875 C-53.49068006 101.55894763 -54.66906403 102.24254412 -55.84765625 102.92578125 C-61.93265176 106.44257712 -61.93265176 106.44257712 -67.93188477 110.10180664 C-70.1875 111.375 -70.1875 111.375 -72.20703125 111.21484375 C-80.41108043 107.73580909 -88.01887689 102.74186132 -95.67822266 98.21166992 C-102.47373221 94.19323731 -109.32098189 90.27074244 -116.1875 86.375 C-116.1875 85.715 -116.1875 85.055 -116.1875 84.375 C-116.86554688 84.2821875 -117.54359375 84.189375 -118.2421875 84.09375 C-121.88735188 83.20421387 -125.01199041 81.60516187 -128.3125 79.875 C-138.37385257 74.66652435 -148.03888393 74.25145408 -159.1875 76.375 C-156.43258304 73.40186786 -153.85478488 71.45338758 -150.26171875 69.59375 C-143.7613673 66.15675781 -137.38041447 62.52862844 -131 58.875 C-130.39556061 58.52940033 -129.79112122 58.18380066 -129.16836548 57.82772827 C-119.71698847 52.4232103 -110.3045492 46.95457404 -100.91064453 41.45068359 C-94.26867256 37.56692139 -87.58489528 33.76497749 -80.875 30 C-69.96476482 23.87354168 -59.20458254 17.50717161 -48.45703125 11.1015625 C-47.4201416 10.48571289 -46.38325195 9.86986328 -45.31494141 9.23535156 C-43.18335859 7.96738427 -41.05556885 6.69302378 -38.93115234 5.41308594 C-37.88523926 4.78950195 -36.83932617 4.16591797 -35.76171875 3.5234375 C-34.83319092 2.96575684 -33.90466309 2.40807617 -32.94799805 1.83349609 C-23.79823761 -3.00073658 -9.70442814 -4.08607501 0 0 Z " fill="#E94537" transform="translate(297.1875,236.625)"/>
<path d="M0 0 C3.03871652 0.33362763 4.32078844 1.10714352 6.7578125 2.9140625 C9.98201146 5.21926319 13.23119247 7.2349251 16.7265625 9.1015625 C22.52368961 12.22562916 28.27250606 15.42807796 34.0078125 18.6640625 C35.01150879 19.22843018 36.01520508 19.79279785 37.04931641 20.37426758 C42.4701197 23.43863796 47.7756554 26.60157437 53.0078125 29.9765625 C57.89360669 33.06096307 61.9372381 34.43472634 67.6328125 35.2890625 C67.9628125 35.6190625 68.2928125 35.9490625 68.6328125 36.2890625 C76.69189494 36.9727955 83.4351742 36.65942438 90.7421875 33.06640625 C91.67804688 32.68162109 91.67804688 32.68162109 92.6328125 32.2890625 C93.2928125 32.6190625 93.9528125 32.9490625 94.6328125 33.2890625 C93.488125 33.85882813 92.3434375 34.42859375 91.1640625 35.015625 C76.53320088 42.07459677 76.53320088 42.07459677 63.140625 51.14453125 C61.13675748 52.66560168 58.99160178 53.45654864 56.6328125 54.2890625 C55.6428125 55.2790625 55.6428125 55.2790625 54.6328125 56.2890625 C52.95317373 57.01361256 51.2718592 57.73482274 49.578125 58.42578125 C47.56497686 59.31916627 45.71469426 60.35499338 43.8203125 61.4765625 C40.6328125 63.2890625 40.6328125 63.2890625 38.6328125 63.2890625 C38.6328125 63.9490625 38.6328125 64.6090625 38.6328125 65.2890625 C37.9934375 65.4128125 37.3540625 65.5365625 36.6953125 65.6640625 C36.0146875 65.8703125 35.3340625 66.0765625 34.6328125 66.2890625 C34.3028125 66.9490625 33.9728125 67.6090625 33.6328125 68.2890625 C32.0316655 68.97040165 30.42789685 69.64613972 28.8125 70.29296875 C25.2790563 71.90771453 22.05313177 74.01532403 18.76953125 76.08203125 C16.6328125 77.2890625 16.6328125 77.2890625 14.6328125 77.2890625 C14.6328125 77.9490625 14.6328125 78.6090625 14.6328125 79.2890625 C13.5603125 79.7428125 12.4878125 80.1965625 11.3828125 80.6640625 C6.17504898 82.50135816 6.17504898 82.50135816 2.6328125 86.2890625 C1.04812411 86.96325961 -0.53884424 87.63240052 -2.13427734 88.28076172 C-6.85353916 90.41180822 -11.2387787 93.20101352 -15.6796875 95.8515625 C-16.68064453 96.44130859 -17.68160156 97.03105469 -18.71289062 97.63867188 C-23.84218579 100.56469367 -23.84218579 100.56469367 -28.3671875 104.2890625 C-29.1303125 104.5778125 -29.8934375 104.8665625 -30.6796875 105.1640625 C-33.45047451 106.14697095 -33.45047451 106.14697095 -35.4921875 108.2265625 C-43.7527758 114.15263672 -54.58689183 114.20729987 -64.3671875 113.2890625 C-72.84206469 111.53321778 -78.41356636 106.29574622 -84.3671875 100.2890625 C-85.3159375 99.3815625 -86.2646875 98.4740625 -87.2421875 97.5390625 C-93.27421782 88.31360436 -94.80464254 77.36732221 -92.89453125 66.6328125 C-89.75578462 54.45372377 -81.67127914 46.32232676 -71.109375 40 C-69.15877256 38.87905202 -67.202793 37.76742114 -65.2421875 36.6640625 C-63.11920732 35.45154338 -60.99682584 34.2379755 -58.875 33.0234375 C-57.80024414 32.41048828 -56.72548828 31.79753906 -55.61816406 31.16601562 C-52.40472467 29.31073461 -49.22219796 27.41187322 -46.046875 25.4921875 C-45.04930176 24.89100098 -44.05172852 24.28981445 -43.02392578 23.67041016 C-41.12009118 22.52005016 -39.21986766 21.36368751 -37.32373047 20.20068359 C-36.46666504 19.68586426 -35.60959961 19.17104492 -34.7265625 18.640625 C-33.97858398 18.18510254 -33.23060547 17.72958008 -32.45996094 17.26025391 C-30.3671875 16.2890625 -30.3671875 16.2890625 -26.3671875 16.2890625 C-26.3671875 15.6290625 -26.3671875 14.9690625 -26.3671875 14.2890625 C-23.82652816 12.84975786 -21.28470728 11.41257411 -18.7421875 9.9765625 C-18.02933594 9.57244141 -17.31648438 9.16832031 -16.58203125 8.75195312 C-13.40634938 6.96016932 -10.24369977 5.22845416 -6.96875 3.62109375 C-4.21236592 2.20979199 -3.06439186 0.37419967 0 0 Z " fill="#FABC06" transform="translate(469.3671875,348.7109375)"/>
<path d="M0 0 C-0.33 0.99 -0.66 1.98 -1 3 C1.64 3.33 4.28 3.66 7 4 C7 4.33 7 4.66 7 5 C6.21496094 5.06058594 5.42992187 5.12117188 4.62109375 5.18359375 C-0.95361148 5.62820214 -6.47640616 6.12124643 -12 7 C-8.8380314 3.47318887 -4.98182478 0 0 0 Z " fill="#CE6A75" transform="translate(150,306)"/>
<path d="M0 0 C0.66 0.33 1.32 0.66 2 1 C-4.44927536 8.46376812 -4.44927536 8.46376812 -7.375 11.3125 C-9.24210971 13.00922741 -9.24210971 13.00922741 -10 16 C-10.66 16 -11.32 16 -12 16 C-10.58794973 11.70983633 -8.50383651 9.03782149 -5.4375 5.75 C-4.22900391 4.44289063 -4.22900391 4.44289063 -2.99609375 3.109375 C-1 1 -1 1 0 0 Z " fill="#699EF5" transform="translate(129,317)"/>
<path d="M0 0 C0.66 0.33 1.32 0.66 2 1 C-1.72346836 5.42094803 -5.29521038 9.57833482 -10 13 C-8.65515286 8.95838045 -6.9494838 6.61321846 -3.875 3.6875 C-3.15054687 2.99011719 -2.42609375 2.29273438 -1.6796875 1.57421875 C-1.12539063 1.05472656 -0.57109375 0.53523437 0 0 Z " fill="#46B37E" transform="translate(391,241)"/>
<path d="M0 0 C0.66 0.33 1.32 0.66 2 1 C-2.58154261 3.39542583 -7.0276578 5.50829734 -12 7 C-12 6.34 -12 5.68 -12 5 C-10.56328432 4.35242375 -9.12559584 3.70700547 -7.6875 3.0625 C-6.88699219 2.70285156 -6.08648438 2.34320313 -5.26171875 1.97265625 C-3 1 -3 1 0 0 Z " fill="#BBC55D" transform="translate(562,381)"/>
</svg>
