<?xml version="1.0" encoding="UTF-8"?>
<svg version="1.1" xmlns="http://www.w3.org/2000/svg" width="980" height="980">
<path d="M0 0 C2.00796552 -0.00462381 4.01592765 -0.01098654 6.02388287 -0.01890898 C11.47296319 -0.03542226 16.921759 -0.02743901 22.3708396 -0.0149641 C28.27415115 -0.00584126 34.17741683 -0.0199189 40.08071899 -0.03088379 C51.61820498 -0.04859699 63.15558642 -0.04486125 74.69307637 -0.03323323 C84.07642877 -0.02402723 93.45975354 -0.02288202 102.84310913 -0.02732849 C103.51216865 -0.02763403 104.18122817 -0.02793957 104.87056222 -0.02825437 C107.58716241 -0.02949992 110.30376259 -0.03077355 113.02036275 -0.03209343 C138.45316188 -0.04430247 163.88590427 -0.0332785 189.31869464 -0.01170584 C211.86556966 0.00727359 234.41235428 0.00557495 256.95922852 -0.0135498 C282.3484285 -0.03501401 307.73757843 -0.04343627 333.12678623 -0.03110075 C335.83815574 -0.02981807 338.54952525 -0.0285667 341.26089478 -0.02732849 C341.92839959 -0.02701218 342.59590441 -0.02669587 343.28363665 -0.02636998 C353.32015803 -0.0218389 363.35664148 -0.02713143 373.39315796 -0.0372467 C384.81640624 -0.04850739 396.23954469 -0.04534144 407.66278052 -0.02412373 C413.48228605 -0.01366793 419.30160897 -0.0093974 425.12111282 -0.02272034 C430.46306724 -0.03476432 435.80467224 -0.02788682 441.1465956 -0.00681013 C443.06421368 -0.00239436 444.98186217 -0.00449481 446.8994602 -0.01431328 C477.48323807 -0.15871973 507.83460405 7.74973694 533.05200195 25.50793457 C534.49446289 26.52307129 534.49446289 26.52307129 535.96606445 27.55871582 C543.50352374 33.04138969 550.31414279 39.094673 557.05200195 45.50793457 C557.69782227 46.10090332 558.34364258 46.69387207 559.0090332 47.30480957 C582.76895476 69.78492271 599.64590467 106.88945393 601.14537087 139.54109006 C601.18150948 141.69490939 601.1885096 143.84672826 601.18342972 146.00084496 C601.18650867 147.23236128 601.18650867 147.23236128 601.18964982 148.48875672 C601.19529406 151.23363914 601.19386576 153.97847098 601.19244385 156.72335815 C601.19502897 158.71383809 601.19804254 160.7043175 601.20144725 162.6947962 C601.20950339 168.16033468 601.21130605 173.62586001 601.21204472 179.09140372 C601.21389772 184.98805324 601.22144636 190.88469597 601.22817993 196.78134155 C601.24246224 210.34639504 601.24828886 223.91144751 601.25287188 237.47650696 C601.25521033 244.18539019 601.25881328 250.89427257 601.26256725 257.60315514 C601.27540166 280.58532169 601.28612027 303.56748777 601.28956985 326.54965782 C601.28979148 327.99159192 601.29001327 329.43352602 601.29023521 330.87546013 C601.29045584 332.32080534 601.29067633 333.76615055 601.29089665 335.21149576 C601.2913392 338.11092719 601.29178631 341.01035861 601.29223633 343.90979004 C601.29234572 344.62867715 601.29245511 345.34756426 601.29256782 346.08823583 C601.29619624 369.38384553 601.31210874 392.67942407 601.33542669 415.97502184 C601.36005597 440.62593429 601.37374416 465.27682894 601.37493777 489.92775404 C601.37510922 492.63702306 601.37532464 495.34629206 601.3755722 498.05556107 C601.37562797 498.72262028 601.37568374 499.3896795 601.3757412 500.07695263 C601.37681809 510.12281138 601.38615761 520.16863993 601.39975739 530.21448898 C601.41518687 541.65207241 601.42026207 553.08960244 601.41201928 564.52719431 C601.40812272 570.35823735 601.40899373 576.18917294 601.42307663 582.02020264 C601.43587523 587.36861011 601.434566 592.71683004 601.42248592 598.06523748 C601.42053919 599.98993755 601.42355941 601.91465119 601.43233028 603.83933227 C601.498856 619.43776609 600.0678304 634.54279862 595.36450195 649.50793457 C594.98213379 650.74301758 594.98213379 650.74301758 594.59204102 652.00305176 C586.95349435 675.84955408 574.03181432 695.26366809 557.05200195 713.50793457 C556.4280957 714.18598145 555.80418945 714.86402832 555.16137695 715.56262207 C530.62788463 741.2300153 493.28569647 757.86930523 457.79907854 758.85197937 C453.39397747 758.91613509 448.99045468 758.91077644 444.58502197 758.89561462 C442.58051022 758.89979737 440.57600084 758.90528001 438.57149577 758.91193444 C433.11342466 758.9262844 427.65550588 758.92217727 422.1974268 758.91476762 C416.29132261 758.91001215 410.38525027 758.92256677 404.47915649 758.93278503 C392.92777213 758.94993227 381.37644226 758.95082147 369.82504848 758.94557213 C360.43016151 758.94143442 351.03528995 758.94292168 341.64040375 758.94832039 C340.2868332 758.94907728 338.93326266 758.94983326 337.57969211 758.95058833 C335.53956178 758.95173362 333.49943144 758.95288351 331.45930112 758.95404758 C312.51083628 758.96474069 293.56237733 758.96949012 274.61391068 758.96157742 C273.90078368 758.96128024 273.18765669 758.96098307 272.45291979 758.96067689 C266.66315919 758.95822837 260.87339867 758.95561657 255.08363816 758.95299276 C232.51056449 758.94289433 209.93756524 758.95124289 187.36450195 758.9744873 C161.95629069 759.00060935 136.5481242 759.01339459 111.13989902 759.00629956 C108.42622043 759.00558358 105.71254183 759.00490918 102.99886322 759.00425911 C102.3307724 759.0040893 101.66268158 759.00391949 100.97434558 759.00374454 C90.92724846 759.00144987 80.88019492 759.00942181 70.83310699 759.02255058 C59.39512804 759.03731231 47.95725317 759.03785627 36.51927617 759.02047967 C30.69169363 759.01199977 24.86429669 759.00974615 19.03672409 759.02513123 C13.68721447 759.03907851 8.33804772 759.03408755 2.98855743 759.01489199 C1.06812551 759.01116221 -0.85233455 759.01396506 -2.77274117 759.02450364 C-46.35311891 759.24638042 -83.55339947 742.12976434 -114.63549805 712.13293457 C-139.70621802 686.4791746 -157.16475429 649.19844677 -157.07942581 613.01502419 C-157.08147845 612.1940133 -157.08353108 611.37300242 -157.08564591 610.52711242 C-157.09129016 607.78223 -157.08986186 605.03739817 -157.08843994 602.29251099 C-157.09102506 600.30203105 -157.09403863 598.31155164 -157.09744334 596.32107294 C-157.10549948 590.85553446 -157.10730214 585.39000913 -157.10804081 579.92446542 C-157.10989381 574.0278159 -157.11744245 568.13117317 -157.12417603 562.23452759 C-157.13845833 548.6694741 -157.14428495 535.10442163 -157.14886797 521.53936218 C-157.15120642 514.83047895 -157.15480937 508.12159657 -157.15856335 501.412714 C-157.17139776 478.43054745 -157.18211636 455.44838137 -157.18556595 432.46621132 C-157.18578758 431.02427722 -157.18600936 429.58234312 -157.1862313 428.14040902 C-157.18645194 426.6950638 -157.18667242 425.24971859 -157.18689275 423.80437338 C-157.18733529 420.90494196 -157.18778241 418.00551053 -157.18823242 415.1060791 C-157.18834181 414.38719199 -157.1884512 413.66830488 -157.18856391 412.92763331 C-157.19219233 389.63202361 -157.20810483 366.33644508 -157.23142279 343.0408473 C-157.25605206 318.38993485 -157.26974025 293.7390402 -157.27093387 269.0881151 C-157.27110531 266.37884608 -157.27132073 263.66957708 -157.2715683 260.96030807 C-157.27162407 260.29324886 -157.27167984 259.62618964 -157.27173729 258.93891651 C-157.27281418 248.89305776 -157.28215371 238.84722921 -157.29575348 228.80138016 C-157.31118296 217.36379673 -157.31625817 205.9262667 -157.30801538 194.48867483 C-157.30411881 188.65763179 -157.30498983 182.8266962 -157.31907272 176.9956665 C-157.33187133 171.64725903 -157.33056209 166.2990391 -157.31848201 160.95063166 C-157.31653528 159.02593159 -157.31955551 157.10121795 -157.32832637 155.17653687 C-157.3948521 139.57810305 -155.96382649 124.47307052 -151.26049805 109.50793457 C-151.00558594 108.6845459 -150.75067383 107.86115723 -150.48803711 107.01281738 C-142.84949044 83.16631507 -129.92781041 63.75220105 -112.94799805 45.50793457 C-112.3240918 44.8298877 -111.70018555 44.15184082 -111.05737305 43.45324707 C-82.19089062 13.25259949 -40.90743476 -0.20945403 0 0 Z " fill="#2073BE" transform="translate(267.947998046875,110.4920654296875)"/>
<path d="M0 0 C0 7.26 0 14.52 0 22 C-3.41050025 20.29474988 -6.38119917 18.45481256 -9.51171875 16.31640625 C-16.40031994 12.67204424 -22.95360727 11.49427801 -30.6875 11.5625 C-31.50283203 11.54251953 -32.31816406 11.52253906 -33.15820312 11.50195312 C-38.59671146 11.50634966 -41.6849146 12.40958543 -46 16 C-51.25309359 21.83677066 -52.32092295 26.11006402 -52.625 33.75 C-52.66367187 34.54277344 -52.70234375 35.33554687 -52.7421875 36.15234375 C-52.836108 38.10119416 -52.91912822 40.05056451 -53 42 C-52.05691483 41.98747192 -51.11382965 41.97494385 -50.14216614 41.96203613 C-41.15716031 41.84286082 -32.17213604 41.72516911 -23.18709278 41.60884857 C-18.57027535 41.54903368 -13.95346538 41.48873585 -9.33666992 41.42724609 C0.21257212 41.30034098 9.76181903 41.17924474 19.31134796 41.07583809 C23.86403489 41.02619988 28.41632065 40.9640738 32.96875 40.89404297 C34.83723141 40.87390167 36.70572043 40.85444398 38.57421875 40.8359375 C39.74612007 40.8120697 39.74612007 40.8120697 40.94169617 40.78771973 C48.3496604 40.74365374 54.35453866 42.80441464 61 46 C61.94875 46.43441406 62.8975 46.86882812 63.875 47.31640625 C78.66146595 54.68863572 89.41315564 66.48603687 97 81 C97.12955078 79.98292969 97.12955078 79.98292969 97.26171875 78.9453125 C98.86019346 68.35725069 102.49011302 59.77793347 111 53 C118.08750794 47.81249419 125.56295186 45.22930134 134 43 C134.58910156 42.8242041 135.17820312 42.6484082 135.78515625 42.46728516 C141.10344909 41.34523792 146.70662699 41.70740429 152.125 41.6875 C152.79762878 41.68488159 153.47025757 41.68226318 154.16326904 41.67956543 C162.43786554 41.67610832 170.51522415 41.92864118 178.625 43.75 C179.33285645 43.90686279 180.04071289 44.06372559 180.77001953 44.2253418 C184.88060565 45.29479177 187.43784423 46.59383998 190 50 C191.08984375 52.62890625 191.08984375 52.62890625 191.9375 55.5625 C193.10376446 59.56034608 194.54281521 63.26183322 196.29711914 67.02978516 C198.86970449 72.64743488 201.20364351 78.33466194 203.46875 84.08203125 C204.07293762 85.60699471 204.07293762 85.60699471 204.68933105 87.1627655 C205.53431646 89.29750802 206.37792856 91.43279459 207.22021484 93.56860352 C208.49322196 96.79531958 209.77167453 100.01983839 211.05078125 103.24414062 C214.85048134 112.84524048 218.62511165 122.43594298 221.98388672 132.2019043 C224.46447112 139.03274952 227.73906819 145.51583501 231 152 C231.31453125 151.17757812 231.6290625 150.35515625 231.953125 149.5078125 C235.87614488 139.2748751 235.87614488 139.2748751 237.875 134.3125 C240.08724004 128.81787128 242.22487291 123.29461955 244.36279297 117.77075195 C246.19371297 113.04722901 248.0611051 108.33960768 249.94677734 103.63769531 C251.84154122 98.89244059 253.70118017 94.13345001 255.5625 89.375 C255.94857422 88.39015625 256.33464844 87.4053125 256.73242188 86.390625 C258.39734877 82.13612698 260.05359766 77.88043745 261.64453125 73.59765625 C265.99916761 62.03967329 271.60342291 53.60321704 282.75 47.625 C303.11751071 38.4710626 325.18615035 40.4444568 346 47 C346 54.26 346 61.52 346 69 C342.3062817 67.52251268 339.53929063 66.19961795 336.25 64.125 C324.38754323 56.90514164 312.86754028 54.47406751 299 56 C292.09986161 57.92582085 286.76973907 61.8972406 283 68 C280.5352798 73.93773504 279.50203171 81.06347868 281.83984375 87.20703125 C286.98470099 96.26683037 296.47616982 100.50997114 305.5 104.875 C306.55719238 105.39674805 307.61438477 105.91849609 308.70361328 106.45605469 C313.37829442 108.76104575 318.06585176 111.03647077 322.7734375 113.2734375 C335.21196111 119.23122884 347.51051948 126.70967873 353 140 C355.3634633 149.42079776 355.07688391 160.14932896 351 169 C350.69835937 169.69609375 350.39671875 170.3921875 350.0859375 171.109375 C343.91443439 184.45587766 332.35233377 189.85183487 319.1875 194.8359375 C312.35884619 197.32973509 306.36447501 197.22127192 299.125 197.25 C297.86429688 197.270625 296.60359375 197.29125 295.3046875 197.3125 C284.38331096 197.35744394 273.97464065 196.1052797 264.25 190.875 C263.26515625 190.35679687 262.2803125 189.83859375 261.265625 189.3046875 C259 188 259 188 258 187 C257.91251793 185.07332493 257.89302666 183.14348139 257.90234375 181.21484375 C257.90556641 180.04501953 257.90878906 178.87519531 257.91210938 177.66992188 C257.92048828 176.43822266 257.92886719 175.20652344 257.9375 173.9375 C257.94201172 172.70193359 257.94652344 171.46636719 257.95117188 170.19335938 C257.96300392 167.12885883 257.97948827 164.06445279 258 161 C258.50354004 161.37946777 259.00708008 161.75893555 259.52587891 162.14990234 C273.28337213 172.81370895 273.28337213 172.81370895 289 180 C290.10214844 180.35449219 291.20429687 180.70898438 292.33984375 181.07421875 C304.28448327 184.09543494 315.77001917 181.94362591 326.4375 176.125 C331.53098852 171.90113147 334.61099061 168.16431368 335.23828125 161.44921875 C335.40745339 155.15423454 335.02111437 150.93073809 331 146 C326.57670593 141.65595062 321.81210333 138.49282998 316.3125 135.6875 C315.5898999 135.31069092 314.8672998 134.93388184 314.12280273 134.5456543 C307.52653556 131.15804055 300.76432119 128.16782379 293.9831543 125.17358398 C288.03932246 122.52753732 282.35966844 119.71985202 277 116 C276.42378906 115.60554688 275.84757812 115.21109375 275.25390625 114.8046875 C271.08892092 111.66796538 268.30629753 107.62279991 266 103 C266 102.34 266 101.68 266 101 C265.34 101 264.68 101 264 101 C263.75088867 101.95398682 263.50177734 102.90797363 263.24511719 103.89086914 C261.8803187 108.65594978 259.98038715 113.17479522 258.078125 117.74609375 C257.50442169 119.1392556 257.50442169 119.1392556 256.91912842 120.56056213 C255.69963228 123.52101968 254.47526374 126.47942537 253.25 129.4375 C251.64792937 133.30992071 250.04862064 137.18345923 248.453125 141.05859375 C248.06700043 141.99612488 247.68087585 142.93365601 247.28305054 143.89959717 C244.44071429 150.83746117 241.76322463 157.82246297 239.19482422 164.8659668 C237.96374568 168.09509536 236.54275243 171.11643781 234.92578125 174.1640625 C233.44823058 177.09422628 232.29813401 180.14618033 231.10595703 183.20117188 C227.16436425 193.17609896 222.88574464 203.02157024 218.69628906 212.89453125 C217.73687715 215.15593147 216.77857459 217.41779984 215.8203125 219.6796875 C215.20839988 221.12242406 214.59642317 222.56513344 213.984375 224.0078125 C213.69898865 224.68167999 213.41360229 225.35554749 213.11956787 226.04983521 C211.11455617 230.77088766 211.11455617 230.77088766 210 233 C203.4 233 196.8 233 190 233 C190.80732884 228.96335579 191.38963553 226.89869161 193.265625 223.46484375 C193.73774414 222.58634766 194.20986328 221.70785156 194.69628906 220.80273438 C195.20901367 219.85720703 195.72173828 218.91167969 196.25 217.9375 C200.81679655 209.33030649 205.21636113 200.65958902 209.37487793 191.84866333 C210.23578211 190.03003476 211.11046007 188.21794701 211.98535156 186.40600586 C212.5109668 185.28202393 213.03658203 184.15804199 213.578125 183 C214.04637695 182.01 214.51462891 181.02 214.99707031 180 C217.11246669 173.6723489 215.89801876 168.73382556 213.28125 162.8125 C212.99187561 162.1295285 212.70250122 161.44655701 212.40435791 160.7428894 C211.44737698 158.49032442 210.47353651 156.24545304 209.5 154 C208.47086975 151.58751305 207.44625435 149.17313664 206.42156982 146.75875854 C205.70760604 145.07772522 204.99212723 143.39733463 204.27520752 141.71755981 C200.68487313 133.29879979 197.21832158 124.83104598 193.76287842 116.35623169 C191.7746042 111.48558887 189.77273595 106.62052094 187.7727356 101.75468445 C186.28525613 98.13452001 184.80043257 94.51335609 183.32519531 90.88818359 C181.85435006 87.27440667 180.36578265 83.6681017 178.875 80.0625 C178.46217773 79.03946777 178.04935547 78.01643555 177.62402344 76.96240234 C174.19115098 68.72828023 170.173575 61.25707031 162 57 C151.99397222 54.78309564 138.37309412 54.00071775 129.015625 58.59765625 C123.7511761 62.26032515 119.96927106 66.88152061 118 73 C117.28009599 78.49400428 117.0769474 84.20385661 119.625 89.25 C127.17587484 99.03807066 143.41198055 104.21313349 154.46826172 109.27636719 C168.55281518 115.75001288 184.39609215 123.66366696 190.640625 138.734375 C194.02140492 148.20055878 193.20268078 159.25798547 189.5625 168.5 C183.11929435 181.38641131 174.07627797 187.85019914 161 193 C160.2771582 193.28842773 159.55431641 193.57685547 158.80957031 193.87402344 C151.82260068 196.32482848 145.01666877 196.46021347 137.66015625 196.39111328 C135.63472591 196.375077 133.6113063 196.39101195 131.5859375 196.41015625 C121.38670132 196.3801585 106.83215412 195.83215412 99 188 C98.91262355 186.14630389 98.89301847 184.28932459 98.90234375 182.43359375 C98.90556641 181.30888672 98.90878906 180.18417969 98.91210938 179.02539062 C98.92048828 177.84138672 98.92886719 176.65738281 98.9375 175.4375 C98.94201172 174.24962891 98.94652344 173.06175781 98.95117188 171.83789062 C98.96300325 168.89187774 98.97948713 165.94596319 99 163 C99.50571533 163.38526855 100.01143066 163.77053711 100.5324707 164.16748047 C116.6912486 176.39605227 131.48755116 183.30562593 152 181 C155.69154545 180.12404006 158.72625534 178.89428371 162 177 C163.093125 176.443125 164.18625 175.88625 165.3125 175.3125 C169.92482285 171.34375708 172.49916172 167.07369302 173.484375 161.02734375 C173.74992348 155.19265358 173.25799413 150.52566432 169.6953125 145.78515625 C159.77389025 135.33794434 144.23149141 130.23797492 131.3203125 124.453125 C121.45650195 119.97681199 113.55900254 115.90259356 106 108 C105.67 108 105.34 108 105 108 C105.02618408 108.60247559 105.05236816 109.20495117 105.0793457 109.82568359 C105.98315111 133.93783903 101.13320658 155.36998764 85 174 C84.38253906 174.81339844 83.76507812 175.62679687 83.12890625 176.46484375 C74.50397258 186.73563632 59.98144826 194.10917329 47 197 C26.94705059 198.66989838 8.80222341 195.40961441 -6.86474609 182.16992188 C-13.45881176 176.24315092 -18.33977382 169.51948846 -23 162 C-23.56460938 161.14148438 -24.12921875 160.28296875 -24.7109375 159.3984375 C-35.55196474 141.62355527 -37.32338539 117.3413368 -32.5 97.375 C-27.82611989 81.75699919 -19.4917016 68.4917016 -8 57 C-29.78 56.505 -29.78 56.505 -52 56 C-52 100.55 -52 145.1 -52 191 C-58.93 191 -65.86 191 -73 191 C-73 146.12 -73 101.24 -73 55 C-78.94 55 -84.88 55 -91 55 C-91 50.71 -91 46.42 -91 42 C-85.06 42 -79.12 42 -73 42 C-73 39.69 -73 37.38 -73 35 C-70.6257516 23.64550616 -65.56119357 12.0633731 -56 5 C-38.65505032 -4.99437631 -19.13833032 -5.7414991 0 0 Z " fill="#FAFCFD" transform="translate(437,375)"/>
<path d="M0 0 C15.83578226 10.90073783 23.08983438 26.14723948 27.20532227 44.56176758 C30.43515843 62.70196676 27.55454259 83.02890602 17.47412109 98.57226562 C16.57886719 99.84650391 16.57886719 99.84650391 15.66552734 101.14648438 C14.84761719 102.37431641 14.84761719 102.37431641 14.01318359 103.62695312 C9.80309373 109.54089113 4.86116741 113.42717323 -1.33447266 117.14648438 C-2.00865234 117.5821875 -2.68283203 118.01789063 -3.37744141 118.46679688 C-11.36933301 122.8878433 -21.78174495 122.23392187 -30.52587891 120.52148438 C-43.45531957 116.4017195 -52.50135191 105.96199799 -58.86572266 94.35351562 C-67.99335333 75.06861302 -71.20504971 52.60309892 -64.06640625 32.07617188 C-58.22551104 16.6770939 -50.13098124 5.13260595 -35.33447266 -2.85351562 C-34.36960937 -3.39492188 -34.36960937 -3.39492188 -33.38525391 -3.94726562 C-22.35253242 -9.11661018 -9.821472 -6.32251939 0 0 Z " fill="#2174BE" transform="translate(491.33447265625,436.853515625)"/>
<path d="M0 0 C5.84661219 5.44212958 10.38490366 11.86840995 10.81054783 20.05377579 C10.80962604 20.93500988 10.80870424 21.81624397 10.80775452 22.72418213 C10.80981651 24.24697784 10.80981651 24.24697784 10.81192017 25.80053711 C10.80652725 27.46209839 10.80652725 27.46209839 10.80102539 29.15722656 C10.80117142 30.32823914 10.80131744 31.49925171 10.8014679 32.70574951 C10.80077072 36.57989346 10.79298737 40.45398944 10.78515625 44.328125 C10.78273621 47.01283746 10.78181861 49.69754986 10.78086853 52.38226318 C10.77776134 58.72867959 10.76955619 65.07507875 10.75951904 71.42148757 C10.74833891 78.64755895 10.74284266 85.87363116 10.73782361 93.09970903 C10.72737308 107.96231558 10.70958387 122.82490604 10.6875 137.6875 C3.7575 137.6875 -3.1725 137.6875 -10.3125 137.6875 C-10.31660889 134.28123291 -10.32071777 130.87496582 -10.32495117 127.36547852 C-10.34216624 116.09771619 -10.38644671 104.83016801 -10.44459057 93.56254673 C-10.47917736 86.73249843 -10.50458775 79.90265062 -10.50805664 73.07250977 C-10.51143195 66.47819633 -10.540828 59.88432583 -10.58593178 53.29014397 C-10.59889824 50.77726109 -10.60321752 48.2643179 -10.59865379 45.75140572 C-10.59374218 42.22507787 -10.61986887 38.70021928 -10.65307617 35.17407227 C-10.64445053 34.14044556 -10.63582489 33.10681885 -10.62693787 32.04187012 C-10.75274804 24.04608663 -12.9642402 18.23413066 -18.48828125 12.3828125 C-28.483786 5.03693881 -37.92096007 2.88350196 -50.3125 4.6875 C-59.73630981 7.66343994 -68.5701117 13.78356288 -73.44629669 22.51335335 C-75.15726747 26.80784329 -74.88065153 31.29227159 -74.85839844 35.85522461 C-74.86873611 36.95840027 -74.87907379 38.06157593 -74.88972473 39.19818115 C-74.91912078 42.82888491 -74.9206513 46.45903041 -74.921875 50.08984375 C-74.93685871 52.61333782 -74.95358626 55.13682209 -74.97198486 57.66029358 C-75.01119051 63.61348512 -75.03286507 69.56657543 -75.04595876 75.51986653 C-75.06185832 82.30113417 -75.10028621 89.08221659 -75.14055204 95.8633765 C-75.22283241 109.80471776 -75.27402506 123.74597256 -75.3125 137.6875 C-82.2425 137.6875 -89.1725 137.6875 -96.3125 137.6875 C-96.3125 88.8475 -96.3125 40.0075 -96.3125 -10.3125 C-89.3825 -10.3125 -82.4525 -10.3125 -75.3125 -10.3125 C-74.9825 -5.3625 -74.6525 -0.4125 -74.3125 4.6875 C-73.11625 3.511875 -71.92 2.33625 -70.6875 1.125 C-50.24317959 -17.0298145 -20.60786457 -17.48916697 0 0 Z " fill="#FAFCFD" transform="translate(331.3125,428.3125)"/>
<path d="M0 0 C7.59 0 15.18 0 23 0 C23 63.69 23 127.38 23 193 C15.41 193 7.82 193 0 193 C0 129.31 0 65.62 0 0 Z " fill="#FCFDFE" transform="translate(189,373)"/>
</svg>
