<?xml version="1.0" encoding="UTF-8"?>
<svg version="1.1" xmlns="http://www.w3.org/2000/svg" width="600" height="600">
<path d="M0 0 C37.69011283 11.23518095 70.65175673 37.17522441 89.8203125 71.234375 C93.50618825 78.23568672 95.97143239 85.36361326 98 93 C98.226875 93.77214844 98.45375 94.54429687 98.6875 95.33984375 C104.73521097 119.2367017 96.80588925 144.2900348 85 165 C77.84551652 176.74875755 68.74352981 187.40174372 58 196 C57.48147461 196.41975098 56.96294922 196.83950195 56.42871094 197.27197266 C42.69277404 208.29676846 27.68469536 217.46345302 11.4375 224.3125 C10.74148682 224.60874268 10.04547363 224.90498535 9.32836914 225.21020508 C6.56366411 226.30925896 4.52033323 227.07009243 1.53515625 226.66796875 C1.02855469 226.44753906 0.52195312 226.22710937 0 226 C0.63164062 225.56171875 1.26328125 225.1234375 1.9140625 224.671875 C21.51082757 210.77906749 39.89654262 194.55109836 45 170 C46.54799446 156.41004868 41.97136026 144.80977639 34 134 C33.48824219 133.30390625 32.97648438 132.6078125 32.44921875 131.890625 C24.7500525 122.33830955 14.29297195 115.91107121 3.63500977 110.16796875 C-3.47698345 106.33386793 -10.43320765 102.25792013 -17.375 98.125 C-17.9548465 97.78012543 -18.53469299 97.43525085 -19.1321106 97.07992554 C-23.09089901 94.72467259 -27.04590545 92.36312624 -31 90 C-31.94794434 89.4342627 -32.89588867 88.86852539 -33.87255859 88.28564453 C-36.4369402 86.75470543 -39.00016141 85.22185577 -41.5625 83.6875 C-42.36252441 83.20845215 -43.16254883 82.7294043 -43.98681641 82.23583984 C-47.89949728 79.88598034 -51.79536917 77.51306143 -55.66796875 75.09765625 C-62.93880087 70.57117291 -70.21359551 66.21450037 -77.875 62.375 C-78.53532227 62.0440332 -79.19564453 61.71306641 -79.87597656 61.37207031 C-85.7471765 58.5055975 -89.89155868 57.84493777 -96.4375 57.8125 C-97.73558594 57.79832031 -99.03367187 57.78414062 -100.37109375 57.76953125 C-103.78196523 57.9861528 -106.00953997 58.39060903 -109 60 C-110.34922228 62.24153878 -110.34922228 62.24153878 -110 65 C-106.7040124 69.57769646 -103.26412063 72.45738653 -98.35546875 75.25 C-97.39869484 75.81270599 -97.39869484 75.81270599 -96.42259216 76.38677979 C-94.35036378 77.60205961 -92.26922113 78.80106684 -90.1875 80 C-88.73491972 80.84761465 -87.28293976 81.69625886 -85.83154297 82.54589844 C-82.91883355 84.24852252 -80.00253356 85.94470015 -77.08251953 87.63476562 C-73.53628112 89.68734636 -69.99864755 91.75418951 -66.46484375 93.828125 C-57.36715428 99.16298197 -48.238137 104.44238398 -39.09545898 109.69970703 C-33.72487653 112.79044725 -28.36140563 115.89337516 -23 119 C-22.03916504 119.55494141 -21.07833008 120.10988281 -20.08837891 120.68164062 C11.94302863 139.24179059 11.94302863 139.24179059 18 156 C19.4620039 168.68387166 17.44414255 179.49209642 10.0625 190.0625 C0.70484097 201.73671306 -10.8094309 209.26052967 -24 216 C-24.61601074 216.32484375 -25.23202148 216.6496875 -25.86669922 216.984375 C-36.1473459 222.37750113 -46.68498341 225.51121539 -58 228 C-59.59328125 228.35384766 -59.59328125 228.35384766 -61.21875 228.71484375 C-97.08114676 235.31853778 -136.50704716 229.26114608 -167.28662109 209.19384766 C-170.53100854 206.93322431 -173.59533992 204.47638757 -176.625 201.9375 C-177.20548096 201.45506836 -177.78596191 200.97263672 -178.3840332 200.47558594 C-183.25131108 196.21644855 -186.66565096 191.86584895 -187.4375 185.25 C-186.96358265 181.72947115 -186.69595984 181.09481815 -184 179 C-179.8200276 177.76014981 -176.17026537 178.4090993 -172.32519531 180.35058594 C-169.35184067 182.26924906 -166.48704662 184.29403815 -163.625 186.375 C-133.57599171 207.26210627 -103.46307759 216.82663287 -66.59130859 210.40380859 C-46.13915439 206.43587194 -22.4447641 196.53733695 -10 179 C-7.02677488 173.66724036 -5.96779296 168.03289942 -7 162 C-13.54963916 141.93975251 -37.45219573 132.50348402 -54.34375 122.828125 C-60.2595248 119.4355538 -66.13740929 115.98347461 -72 112.5 C-79.96509265 107.77163666 -87.97123667 103.11936927 -96 98.5 C-98.18762039 97.2371877 -100.37512126 95.97416832 -102.5625 94.7109375 C-106.76302311 92.28551497 -110.97239424 89.8765316 -115.1875 87.4765625 C-140.22430635 73.119041 -140.22430635 73.119041 -142.8125 64.4375 C-143.53854257 58.57802968 -141.36514888 54.29345012 -138.4375 49.375 C-125.5330872 36.80146958 -103.48543648 32.76312662 -86.02734375 32.98046875 C-63.13945578 33.73100084 -46.37745287 39.87454154 -27.22387695 52.1315918 C-21.97591898 55.46398429 -16.60957257 58.51174615 -11.125 61.4375 C-10.36469482 61.8504834 -9.60438965 62.2634668 -8.82104492 62.68896484 C1.49012426 68.10459357 13.36361283 71.85034812 24.95703125 68.79296875 C29.11986702 67.17718355 32.13707422 64.76751005 34.1328125 60.6796875 C36.77619403 52.51140043 35.20443901 44.55136862 31.66796875 36.93359375 C28.71806074 31.74534805 24.98852186 27.41520095 21 23 C20.10761697 21.98738079 19.21570036 20.97435038 18.32421875 19.9609375 C13.14161025 14.13705826 7.75503332 8.7982087 1.80078125 3.7421875 C1.20652344 3.16726562 0.61226562 2.59234375 0 2 C0 1.34 0 0.68 0 0 Z M24 14 C26.97335321 18.35383862 29.88503719 20.68002732 34.5 23.25 C59.77145413 37.37228319 81.54161303 60.37159134 90.0703125 88.33984375 C95.33180132 109.05419259 92.74374637 128.08686213 86 148 C85.67257812 148.99386719 85.34515625 149.98773438 85.0078125 151.01171875 C84.3486515 153.0111738 83.67642715 155.00631998 83 157 C91.69275299 149.67435653 95.1774651 131.39366228 96.75 120.6875 C96.8325 119.470625 96.915 118.25375 97 117 C97.07734375 115.95972656 97.07734375 115.95972656 97.15625 114.8984375 C98.2415027 87.85755774 84.83447857 64.59884408 67.171875 45.3359375 C66.09679687 44.17964844 66.09679687 44.17964844 65 43 C64.44828125 42.39414063 63.8965625 41.78828125 63.328125 41.1640625 C54.05286996 31.38371932 42.3988792 24.03794435 31 17 C30.0821875 16.42121094 29.164375 15.84242188 28.21875 15.24609375 C26.13348561 13.83677397 26.13348561 13.83677397 24 14 Z M-66 40 C-62 41 -62 41 -62 41 Z M-59 42 C-56.75687507 44.24312493 -54.88091079 45.05458255 -52 46.375 C-46.43152963 49.09603271 -41.41999725 52.31076477 -36.3125 55.8125 C-22.56500381 65.15159576 -5.34572071 76.8259867 12 76 C12 75.67 12 75.34 12 75 C11.18660156 74.8040625 10.37320313 74.608125 9.53515625 74.40625 C-9.26683455 69.49954374 -25.81812856 59.64997766 -42 49.125 C-49.93570916 43.90236476 -49.93570916 43.90236476 -59 42 Z M-115 60 C-114 62 -114 62 -114 62 Z M-116 63 C-115.61968723 68.3243788 -113.89268081 71.47999585 -110 75 C-105.84028843 77.83108727 -101.49265993 80.32032712 -97.125 82.8125 C-95.88611674 83.53064202 -94.6479202 84.24996998 -93.41040039 84.97045898 C-90.99814811 86.37371998 -88.5831273 87.77198975 -86.16552734 89.16601562 C-82.56096912 91.25435755 -78.9960044 93.39681323 -75.4375 95.5625 C-62.65337044 103.25340899 -49.67296246 110.6210452 -36.71730042 118.01837158 C-34.97456739 119.01397624 -33.23285545 120.01134387 -31.49145508 121.00927734 C-29.32275956 122.25145279 -27.15216474 123.49032109 -24.97924805 124.72509766 C-9.56673813 133.5630751 3.88268918 141.76537835 12 158 C12.22858114 160.0374763 12.41024278 162.08040303 12.5625 164.125 C12.64628906 165.22070312 12.73007812 166.31640625 12.81640625 167.4453125 C12.87699219 168.28835938 12.93757812 169.13140625 13 170 C15.60721299 165.27573006 15.82408851 160.94168304 14.3828125 155.796875 C6.06657294 134.74869347 -22.05418633 123.6731282 -40.46411133 113.07836914 C-52.57347608 106.10610148 -64.63584649 99.05471018 -76.67382812 91.95996094 C-78.79663035 90.70909069 -80.92024592 89.45959901 -83.04492188 88.21191406 C-111.21461377 71.65231138 -111.21461377 71.65231138 -115 63 C-115.33 63 -115.66 63 -116 63 Z M12 76 C12 76.33 12 76.66 12 77 C13.98 77 15.96 77 18 77 C18 76.67 18 76.34 18 76 C16.02 76 14.04 76 12 76 Z M81 159 C82 161 82 161 82 161 Z M12 170 C13 172 13 172 13 172 Z M-179 184 C-177.54018558 186.91962884 -175.10977592 187.45890043 -172.27783203 188.82226562 C-168.44606688 190.80344838 -164.97956416 193.29896945 -161.4375 195.75 C-136.0310773 212.94887942 -112.47830527 218.71091741 -82 218 C-82 217.67 -82 217.34 -82 217 C-83.85238281 216.94392578 -83.85238281 216.94392578 -85.7421875 216.88671875 C-118.2900436 215.70533774 -146.04759572 205.87785576 -171.6328125 185.43359375 C-174.33915079 183.7946067 -175.8919488 183.69583129 -179 184 Z " fill="#2648A2" transform="translate(380,122)"/>
<path d="M0 0 C7.77917562 8.04938465 7.77917562 8.04938465 8.375 13.3125 C8 17 8 17 5.9375 20 C3 22 3 22 -0.25 22.1875 C-7.05516319 20.03253166 -12.11824907 15.75604918 -17.5 11.1875 C-28.48031781 2.30110326 -41.51924854 -3.16352068 -55 -7 C-55.99128906 -7.29519531 -56.98257813 -7.59039062 -58.00390625 -7.89453125 C-89.44484797 -16.57821991 -121.71131347 -11.98925761 -150 4 C-158.74393326 9.48881048 -168.4803283 16.56622231 -171.59375 26.91015625 C-173.25688498 35.46570639 -171.80609499 41.72924091 -167 49 C-149.93158434 71.78967231 -109.40424212 86.67365286 -85.125 100.1875 C-40.47230654 125.10392635 -40.47230654 125.10392635 -37 135 C-36.22318479 140.9431043 -36.41807338 145.03359837 -40 150 C-54.96643567 163.85891943 -78.44758262 167.63968416 -97.99707031 167.08886719 C-119.83847246 166.11979474 -138.75746971 156.45160785 -156.41162109 144.37304688 C-170.2823163 134.95552739 -183.86065191 128.49874323 -201 130 C-205.65232319 130.95924189 -209.11185328 133.29309395 -211.9921875 137.13671875 C-214.68100512 142.10790481 -215.20911372 147.20759664 -214.5625 152.75 C-211.17890512 163.39647052 -205.35793479 172.69624373 -198 181 C-197.24589844 181.86238281 -196.49179688 182.72476563 -195.71484375 183.61328125 C-193.82496841 185.75647321 -191.92106531 187.88478447 -190 190 C-190.33 190.66 -190.66 191.32 -191 192 C-190.28972656 192.40992188 -189.57945312 192.81984375 -188.84765625 193.2421875 C-187.92855469 193.78101563 -187.00945312 194.31984375 -186.0625 194.875 C-185.14597656 195.40867187 -184.22945313 195.94234375 -183.28515625 196.4921875 C-181 198 -181 198 -180 200 C-183.39472959 199.42312999 -186.21523796 198.58799127 -189.30078125 197.06640625 C-190.10515625 196.66993896 -190.90953125 196.27347168 -191.73828125 195.86499023 C-192.58777344 195.43516846 -193.43726563 195.00534668 -194.3125 194.5625 C-195.19679688 194.11656494 -196.08109375 193.67062988 -196.9921875 193.21118164 C-230.93500652 175.82159172 -264.32480296 149.6311012 -276.4375 112.125 C-283.31683898 85.39907245 -276.98671614 57.91703978 -263.95703125 34.2421875 C-260.70158566 28.84893434 -256.93482851 23.9113025 -253 19 C-252.46375 18.32066406 -251.9275 17.64132813 -251.375 16.94140625 C-247.68371643 12.43763906 -243.45864387 8.7272084 -239 5 C-238.20980469 4.31035156 -237.41960937 3.62070313 -236.60546875 2.91015625 C-222.6335362 -9.00892864 -203.92782193 -21.11409145 -186 -26 C-185.01 -25.505 -185.01 -25.505 -184 -25 C-184 -24.01 -184 -23.02 -184 -22 C-185.86088363 -20.42236052 -187.70031385 -19.02666088 -189.6875 -17.625 C-205.36533781 -6.0477868 -220.09516411 9.24780096 -224 29 C-225.32025959 44.53843978 -220.3606322 58.10931873 -210.375 70 C-197.37602854 83.89537237 -178.51167991 92.78479001 -162.20800781 102.14648438 C-157.10965886 105.0921971 -152.0440784 108.09273692 -146.98068237 111.09796143 C-145.25801518 112.12024356 -143.53440505 113.14093619 -141.81079102 114.16162109 C-136.6613093 117.21490303 -131.52153006 120.2817237 -126.41015625 123.3984375 C-103.36838654 138.76263245 -103.36838654 138.76263245 -77 143 C-73.64462373 141.65784949 -71.54210798 140.54210798 -69 138 C-69.12175747 134.46457884 -69.36991275 132.62759265 -71.91162109 130.09594727 C-72.73227051 129.57057373 -73.55291992 129.0452002 -74.3984375 128.50390625 C-75.3069043 127.91625488 -76.21537109 127.32860352 -77.15136719 126.72314453 C-81.59515873 124.03508482 -86.07660627 121.44448867 -90.625 118.9375 C-92.66744308 117.79696219 -94.70908547 116.65498956 -96.75 115.51171875 C-97.78769531 114.93083496 -98.82539063 114.34995117 -99.89453125 113.75146484 C-107.90534448 109.23341656 -115.82289572 104.55225889 -123.75585938 99.89941406 C-126.58249653 98.24444439 -129.41204791 96.59468714 -132.24333191 94.94769287 C-144.47061398 87.83417202 -156.66718841 80.67304272 -168.73492432 73.29119873 C-170.38920859 72.27953229 -172.04588836 71.27178623 -173.70263672 70.26416016 C-185.4660931 63.02264209 -193.82609504 55.25293578 -197.6875 41.5625 C-199.11058272 29.89322168 -195.786718 20.49253367 -189 11 C-186.16700676 7.48943587 -183.16244748 4.2154198 -180 1 C-179.32324219 0.31035156 -178.64648438 -0.37929687 -177.94921875 -1.08984375 C-132.71555747 -44.10867416 -44.95811348 -40.78511871 0 0 Z M-87 -26 C-87 -25.67 -87 -25.34 -87 -25 C-85.35 -25 -83.7 -25 -82 -25 C-82 -25.33 -82 -25.66 -82 -26 C-83.65 -26 -85.3 -26 -87 -26 Z M-103 -25 C-103 -24.67 -103 -24.34 -103 -24 C-101.35 -24 -99.7 -24 -98 -24 C-98 -24.33 -98 -24.66 -98 -25 C-99.65 -25 -101.3 -25 -103 -25 Z M-76 -25 C-76 -24.67 -76 -24.34 -76 -24 C-73.36 -24 -70.72 -24 -68 -24 C-68 -24.33 -68 -24.66 -68 -25 C-70.64 -25 -73.28 -25 -76 -25 Z M-66 -24 C-62 -23 -62 -23 -62 -23 Z M-61 -23 C-61 -22.67 -61 -22.34 -61 -22 C-60.46334717 -21.86537354 -59.92669434 -21.73074707 -59.3737793 -21.59204102 C-37.99894729 -16.12522179 -15.19505624 -7.83053196 0 9 C1.27734375 11.7734375 1.27734375 11.7734375 2 14 C2.66 14 3.32 14 4 14 C3.9008505 9.93487068 2.9875045 7.58046772 0.25 4.6875 C-13.14245776 -7.67058094 -29.63881646 -15.95504431 -47 -21 C-47.82757813 -21.24621094 -48.65515625 -21.49242188 -49.5078125 -21.74609375 C-53.40441536 -22.82025233 -56.96477518 -23.20176124 -61 -23 Z M-215 -3 C-214.67 -2.34 -214.34 -1.68 -214 -1 C-213.67 -1.66 -213.34 -2.32 -213 -3 C-213.66 -3 -214.32 -3 -215 -3 Z M-216 -1 C-216.99 -0.01 -217.98 0.98 -219 2 C-218.67 2.66 -218.34 3.32 -218 4 C-217.01 3.01 -216.02 2.02 -215 1 C-215.33 0.34 -215.66 -0.32 -216 -1 Z M-220 4 C-228.63855849 17.01542812 -233.03518288 31.1044674 -229.98046875 46.7265625 C-221.02719348 76.61837398 -194.99444527 90.71995661 -169.62890625 105.203125 C-163.67791932 108.6017253 -157.76780693 112.0641998 -151.875 115.5625 C-141.18872992 121.89694839 -130.47634145 128.18491434 -119.72802734 134.41357422 C-117.20430815 135.88118898 -114.68933851 137.36273207 -112.17578125 138.84765625 C-110.76338868 139.66990302 -109.35065578 140.49156561 -107.9375 141.3125 C-107.32535645 141.67956055 -106.71321289 142.04662109 -106.08251953 142.42480469 C-101.96552004 144.78957044 -98.647837 145.59146401 -94 146 C-96.35696434 144.42869044 -98.6566041 143.05847324 -101.140625 141.71484375 C-102.36289795 141.0501709 -102.36289795 141.0501709 -103.60986328 140.37207031 C-104.4811084 139.89866211 -105.35235352 139.42525391 -106.25 138.9375 C-112.88034911 135.3127991 -119.42893603 131.60923917 -125.88330078 127.67944336 C-131.90884056 124.02361298 -138.01521938 120.51277199 -144.125 117 C-146.95797801 115.36684222 -149.79069668 113.7332362 -152.6231842 112.09922791 C-155.65973317 110.34792411 -158.69759736 108.59897059 -161.73779297 106.85400391 C-190.93664159 90.08272743 -190.93664159 90.08272743 -204 80 C-204.89203125 79.32195312 -205.7840625 78.64390625 -206.703125 77.9453125 C-217.37072909 69.20077989 -224.86433564 56.65649597 -227 43 C-228.04355165 29.04385077 -226.13659281 18.15863961 -219 6 C-219.33 5.34 -219.66 4.68 -220 4 Z M-176 23 C-179.00255289 28.62978667 -178.75187911 34.65937256 -177.3828125 40.7421875 C-172.35835594 56.43805622 -159.27389505 65.59111045 -145.375 73.125 C-143.33637652 74.25365083 -141.29864347 75.38391123 -139.26171875 76.515625 C-138.22450684 77.08990234 -137.18729492 77.66417969 -136.11865234 78.25585938 C-131.1020612 81.06144315 -126.14491784 83.96651163 -121.1875 86.875 C-112.8490594 91.75675078 -104.49606031 96.61188164 -96.125 101.4375 C-94.52241333 102.36248291 -94.52241333 102.36248291 -92.88745117 103.30615234 C-87.83308702 106.2217671 -82.77537868 109.13117944 -77.70651245 112.02149963 C-75.94132475 113.02851734 -74.1772822 114.0375124 -72.41357422 115.04711914 C-70.2117336 116.30677607 -68.00778113 117.56275213 -65.80126953 118.81420898 C-45.15936091 130.64143795 -45.15936091 130.64143795 -41 140 C-40.67 139.34 -40.34 138.68 -40 138 C-43.7323185 127.30068697 -55.38412306 122.14304065 -64.625 116.875 C-65.92893848 116.12270258 -67.23231671 115.36943335 -68.53515625 114.61523438 C-71.14420359 113.10562587 -73.75533891 111.59973916 -76.36816406 110.09667969 C-81.26996009 107.27247456 -86.13592961 104.38855901 -91 101.5 C-98.82475068 96.86784698 -106.66196774 92.25715163 -114.50640869 87.65844727 C-116.36534276 86.56816407 -118.22349566 85.4765592 -120.08154297 84.38476562 C-125.96753822 80.92901758 -131.86464166 77.49719674 -137.796875 74.12109375 C-170.34599069 55.5501259 -170.34599069 55.5501259 -175 40 C-175.22740233 37.05642327 -175.18929095 34.13746538 -175.125 31.1875 C-175.11597656 30.39923828 -175.10695313 29.61097656 -175.09765625 28.79882812 C-175.07422504 26.86575334 -175.03835838 24.9328362 -175 23 C-175.33 23 -175.66 23 -176 23 Z M-220 142 C-222.03983562 153.01511234 -219.19584183 161.72307378 -213 171 C-212.34 171.33 -211.68 171.66 -211 172 C-212.27654128 167.97444192 -213.79457734 164.20637866 -215.5625 160.375 C-218.16883109 154.25778762 -218.8711363 148.60719311 -219 142 C-219.33 142 -219.66 142 -220 142 Z M-94 146 C-90 147 -90 147 -90 147 Z M-211 172 C-210.67 172.99 -210.34 173.98 -210 175 C-210 174.01 -210 173.02 -210 172 C-210.33 172 -210.66 172 -211 172 Z M-209 175 C-207.6910428 178.12197478 -207.6910428 178.12197478 -205 180 C-206.3089572 176.87802522 -206.3089572 176.87802522 -209 175 Z " fill="#2648A2" transform="translate(385,149)"/>
<path d="M0 0 C1.20079193 0.00015106 2.40158386 0.00030212 3.63876343 0.00045776 C5.560952 0.01594162 5.560952 0.01594162 7.52197266 0.03173828 C8.8586099 0.03547289 10.1952499 0.03831774 11.53189087 0.04031372 C15.03358648 0.04791501 18.53511366 0.0675329 22.03674316 0.08972168 C25.61643191 0.11025604 29.19614812 0.1193316 32.77587891 0.12939453 C39.78767342 0.15078251 46.79932884 0.18593568 53.81103516 0.22705078 C53.81103516 3.85705078 53.81103516 7.48705078 53.81103516 11.22705078 C51.19911255 11.24892456 51.19911255 11.24892456 48.53442383 11.27124023 C42.78267849 11.32287604 37.03117523 11.38815776 31.27968884 11.46276569 C27.79235835 11.50750286 24.30514559 11.5467511 20.81762695 11.57348633 C16.80861729 11.60445929 12.80024148 11.65924894 8.79150391 11.71533203 C7.53830856 11.72172195 6.28511322 11.72811188 4.99394226 11.73469543 C3.25247673 11.76438667 3.25247673 11.76438667 1.47583008 11.79467773 C0.45212814 11.80578079 -0.57157379 11.81688385 -1.626297 11.82832336 C-4.2182498 12.02677853 -4.2182498 12.02677853 -6.01591492 13.59196472 C-7.71924571 15.96619652 -7.62257868 17.83574294 -7.62646484 20.72705078 C-7.64580078 21.68611328 -7.66513672 22.64517578 -7.68505859 23.63330078 C-7.43405613 26.31513683 -7.43405613 26.31513683 -5.45578003 27.86610413 C-2.85241318 29.4291091 -1.43584053 29.59945546 1.57617188 29.59594727 C2.51749969 29.60283066 3.45882751 29.60971405 4.42868042 29.61680603 C5.94439133 29.60756859 5.94439133 29.60756859 7.49072266 29.59814453 C9.63785966 29.6155277 11.78499504 29.63311208 13.93212891 29.65087891 C17.31155395 29.66094988 20.69087308 29.66454834 24.0703125 29.6628418 C27.33576951 29.66641555 30.60041094 29.6937744 33.86572266 29.72314453 C34.87214813 29.71496201 35.87857361 29.70677948 36.91549683 29.698349 C42.87735611 29.7614859 46.24882082 30.29472345 50.81103516 34.22705078 C55.02487184 38.86850726 54.28935938 44.74503817 54.24853516 50.66455078 C54.26851563 51.68871094 54.28849609 52.71287109 54.30908203 53.76806641 C54.30524668 59.69368755 54.0905567 63.7339092 49.81103516 68.22705078 C45.52225762 70.77488303 42.40489166 71.59803358 37.43847656 71.56762695 C35.57722641 71.56728706 35.57722641 71.56728706 33.67837524 71.56694031 C32.33977897 71.55162413 31.00118645 71.5359762 29.66259766 71.52001953 C28.28112246 71.51441799 26.89964127 71.51015053 25.51815796 71.50715637 C21.89800299 71.49575137 18.27821428 71.46632247 14.65820312 71.43304443 C10.95789544 71.40224919 7.25752805 71.38863093 3.55712891 71.37353516 C-3.69173522 71.34144786 -10.94029854 71.29030509 -18.18896484 71.22705078 C-18.18896484 67.59705078 -18.18896484 63.96705078 -18.18896484 60.22705078 C-15.57704224 60.19732178 -15.57704224 60.19732178 -12.91235352 60.16699219 C-7.16065509 60.0992349 -1.40911511 60.02246058 4.34238148 59.9395237 C7.82969493 59.88956704 11.31697818 59.84323718 14.80444336 59.80517578 C18.81334593 59.76126494 22.82187967 59.70161618 26.83056641 59.64111328 C28.08376175 59.62956207 29.33695709 59.61801086 30.62812805 59.60610962 C31.78910507 59.58623993 32.95008209 59.56637024 34.14624023 59.54589844 C35.16994217 59.53257477 36.1936441 59.5192511 37.24836731 59.50552368 C40.05097347 59.40044666 40.05097347 59.40044666 42.81103516 57.22705078 C43.17633748 54.10147119 43.17633748 54.10147119 42.99853516 50.60205078 C42.97146484 49.41353516 42.94439453 48.22501953 42.91650391 47.00048828 C42.86429688 45.62763672 42.86429688 45.62763672 42.81103516 44.22705078 C37.31701371 40.77100505 32.64687349 40.81556294 26.37353516 40.85595703 C24.32405428 40.83857961 22.27457515 40.82099518 20.22509766 40.80322266 C17.01250032 40.79314334 13.80001486 40.78955662 10.58740234 40.79125977 C7.47411065 40.7876862 4.36167435 40.76033664 1.24853516 40.73095703 C0.29213135 40.73913956 -0.66427246 40.74732208 -1.6496582 40.75575256 C-7.32375851 40.69256257 -10.73811279 40.10792307 -15.18896484 36.22705078 C-18.34729582 31.48955432 -17.59811372 26.48712225 -17.62646484 20.91455078 C-17.65933594 19.78597656 -17.69220703 18.65740234 -17.72607422 17.49462891 C-17.78634605 8.18537128 -17.78634605 8.18537128 -15.03662109 4.55908203 C-10.36639317 0.73449209 -5.93482521 -0.02504146 0 0 Z " fill="#2648A2" transform="translate(28.18896484375,386.77294921875)"/>
<path d="M0 0 C7.82875508 -0.0743381 15.65730317 -0.12869206 23.48632812 -0.16479492 C26.14796423 -0.17815167 28.80911286 -0.20029814 31.47070312 -0.22631836 C35.30344752 -0.26284115 39.1358629 -0.27975892 42.96875 -0.29296875 C44.15239136 -0.30845261 45.33603271 -0.32393646 46.55554199 -0.33988953 C53.09684679 -0.34121227 58.09234773 0.10338927 64 3 C68.2641637 7.30458231 68.49412807 11.32327653 68.49804688 17.10351562 C68.47806641 18.07998047 68.45808594 19.05644531 68.4375 20.0625 C68.44458984 21.04283203 68.45167969 22.02316406 68.45898438 23.03320312 C68.41379589 28.15340613 68.3387988 31.85179543 65 36 C64.608125 36.556875 64.21625 37.11375 63.8125 37.6875 C60.88401886 39.80812427 57.49874151 40.17366406 54 41 C54.47626831 41.93682617 54.47626831 41.93682617 54.9621582 42.89257812 C56.41659856 45.75954718 57.86458423 48.62973065 59.3125 51.5 C59.81201172 52.48226562 60.31152344 53.46453125 60.82617188 54.4765625 C63.5570007 59.90205022 65.99913749 65.26373888 68 71 C64.04 71 60.08 71 56 71 C54.00119778 66.90898649 52.00750698 62.81553794 50.01855469 58.71972656 C49.34092606 57.32613748 48.66189476 55.93322955 47.98144531 54.54101562 C47.00478259 52.54213157 46.03315656 50.54086863 45.0625 48.5390625 C44.75626709 47.91504547 44.45003418 47.29102844 44.13452148 46.64810181 C42 42.22774341 42 42.22774341 42 40 C31.44 40 20.88 40 10 40 C10 50.23 10 60.46 10 71 C6.7 71 3.4 71 0 71 C0 57.47 0 43.94 0 30 C3.60035156 29.95101563 7.20070313 29.90203125 10.91015625 29.8515625 C14.40848847 29.79750722 17.90675386 29.74021751 21.4050293 29.68261719 C23.83075962 29.64440396 26.25654513 29.60953789 28.68237305 29.578125 C32.17516767 29.53230847 35.66758489 29.47434059 39.16015625 29.4140625 C40.23959 29.40251129 41.31902374 29.39096008 42.4311676 29.37905884 C47.99055148 29.27081775 52.74520754 28.85463263 58 27 C58.08114106 25.22992286 58.13925505 23.45877902 58.1875 21.6875 C58.22230469 20.70136719 58.25710938 19.71523438 58.29296875 18.69921875 C58.23607884 15.98237566 58.23607884 15.98237566 56.61328125 14.20703125 C53.61786124 11.96590587 51.60055087 11.85593331 47.90771484 11.79467773 C46.84676605 11.77473251 45.78581726 11.75478729 44.69271851 11.73423767 C43.54373077 11.71752518 42.39474304 11.70081268 41.2109375 11.68359375 C40.03737701 11.66281265 38.86381653 11.64203156 37.6546936 11.62062073 C33.89485696 11.55508017 30.13494878 11.49621924 26.375 11.4375 C23.83072168 11.39431908 21.28645067 11.35070493 18.7421875 11.30664062 C12.49486553 11.19939414 6.2474714 11.09813939 0 11 C0 7.37 0 3.74 0 0 Z " fill="#2648A2" transform="translate(436,387)"/>
<path d="M0 0 C7.29368633 -0.06801209 14.58719684 -0.12295142 21.88113403 -0.15543652 C25.26869572 -0.1710346 28.65602758 -0.19216406 32.04345703 -0.22631836 C35.94569903 -0.26283475 39.84761791 -0.2797575 43.75 -0.29296875 C44.95551514 -0.30845261 46.16103027 -0.32393646 47.40307617 -0.33988953 C61.11326216 -0.34261326 61.11326216 -0.34261326 66.64746094 4.41682434 C70.28533046 8.67502777 69.30344739 15.04037375 69.375 20.3125 C69.43107422 21.86227539 69.43107422 21.86227539 69.48828125 23.44335938 C69.58703409 31.9964523 69.58703409 31.9964523 66.7265625 35.60546875 C62.81432678 39.04128608 60.2579373 40.25390689 55.04785156 40.22705078 C54.06713684 40.22689972 53.08642212 40.22674866 52.07598877 40.22659302 C50.4992337 40.21110916 50.4992337 40.21110916 48.890625 40.1953125 C47.80867859 40.1924826 46.72673218 40.18965271 45.61199951 40.18673706 C42.15788696 40.17554609 38.70403412 40.1504432 35.25 40.125 C32.90755583 40.11496881 30.56510759 40.1058432 28.22265625 40.09765625 C22.48159038 40.07731229 16.74108576 40.03816084 11 40 C11 50.23 11 60.46 11 71 C7.37 71 3.74 71 0 71 C0 57.47 0 43.94 0 30 C5.27484375 29.92652344 5.27484375 29.92652344 10.65625 29.8515625 C14.07849218 29.79748539 17.50066686 29.7402043 20.92285156 29.68261719 C23.29324269 29.64443726 25.66368959 29.6095656 28.03417969 29.578125 C31.45007193 29.5322356 34.86558389 29.47428038 38.28125 29.4140625 C39.33364868 29.40251129 40.38604736 29.39096008 41.47033691 29.37905884 C47.28527575 29.26356785 52.45756246 28.82932946 58 27 C59.16343227 24.67313547 59.19895988 23.15278587 59.25 20.5625 C59.28867188 19.38880859 59.28867188 19.38880859 59.328125 18.19140625 C58.92253081 15.48261649 58.11466951 14.6783906 56 13 C53.46813122 11.73406561 51.65025209 11.84081806 48.81591797 11.79467773 C47.73494843 11.77473251 46.65397888 11.75478729 45.54025269 11.73423767 C44.36939117 11.71752518 43.19852966 11.70081268 41.9921875 11.68359375 C40.79643097 11.66281265 39.60067444 11.64203156 38.36868286 11.62062073 C34.53751536 11.55507711 30.70627762 11.49621782 26.875 11.4375 C24.28254473 11.39431937 21.69009664 11.35070523 19.09765625 11.30664062 C12.73184337 11.19939077 6.36595963 11.09813688 0 11 C0 7.37 0 3.74 0 0 Z " fill="#2648A2" transform="translate(174,387)"/>
<path d="M0 0 C7.31095705 -0.06796189 14.62173949 -0.12292277 21.93294621 -0.15543652 C25.32838302 -0.1710469 28.72359121 -0.19219932 32.11889648 -0.22631836 C36.02845459 -0.26535614 39.93792232 -0.27974753 43.84765625 -0.29296875 C45.05833267 -0.30845261 46.26900909 -0.32393646 47.51637268 -0.33988953 C55.04204132 -0.34138451 60.50427321 -0.03576274 66.375 5.0625 C70.07478897 9.47378685 69.22181238 14.29124972 69.25 19.8125 C69.270625 20.81087891 69.29125 21.80925781 69.3125 22.83789062 C69.36288267 32.29093824 69.36288267 32.29093824 66 36 C60.51164153 40.81895098 55.5662745 40.52835454 48.4765625 40.390625 C47.37524994 40.38496521 46.27393738 40.37930542 45.13925171 40.37347412 C41.63405237 40.35114742 38.12988854 40.30095572 34.625 40.25 C32.24350438 40.22993031 29.86199269 40.21168036 27.48046875 40.1953125 C21.6529294 40.15470247 15.82761887 40.07639996 10 40 C10 50.23 10 60.46 10 71 C6.7 71 3.4 71 0 71 C0 57.47 0 43.94 0 30 C3.60035156 29.96261719 7.20070313 29.92523438 10.91015625 29.88671875 C14.40850803 29.8404686 17.9067543 29.78924747 21.4050293 29.73754883 C23.83074498 29.70435534 26.25653686 29.67630616 28.68237305 29.65356445 C32.17529684 29.61991669 35.66752585 29.56759369 39.16015625 29.51171875 C40.77930687 29.50213387 40.77930687 29.50213387 42.4311676 29.49235535 C48.3509008 29.3775364 52.80167262 28.93392321 58 26 C59.58770472 22.82459056 59.41100302 19.45809441 59 16 C57.45661909 13.82523599 56.36334727 13.18167363 54 12 C52.27472879 11.88082832 50.54507102 11.82282674 48.81591797 11.79467773 C47.73494843 11.77473251 46.65397888 11.75478729 45.54025269 11.73423767 C44.36939117 11.71752518 43.19852966 11.70081268 41.9921875 11.68359375 C40.79643097 11.66281265 39.60067444 11.64203156 38.36868286 11.62062073 C34.53751536 11.55507711 30.70627762 11.49621782 26.875 11.4375 C24.28254473 11.39431937 21.69009664 11.35070523 19.09765625 11.30664062 C12.73184337 11.19939077 6.36595963 11.09813688 0 11 C0 7.37 0 3.74 0 0 Z " fill="#2648A2" transform="translate(250,387)"/>
<path d="M0 0 C2.97 0 5.94 0 9 0 C9 9.9 9 19.8 9 30 C29.46 30 49.92 30 71 30 C71 43.53 71 57.06 71 71 C67.7 71 64.4 71 61 71 C61 60.77 61 50.54 61 40 C43.84 40 26.68 40 9 40 C9 50.23 9 60.46 9 71 C6.03 71 3.06 71 0 71 C0 47.57 0 24.14 0 0 Z " fill="#2648A2" transform="translate(328,387)"/>
<path d="M0 0 C3.63 0 7.26 0 11 0 C16.4763199 10.45671102 21.93716925 20.92099261 27.3359375 31.41796875 C27.7062056 32.13776413 28.07647369 32.85755951 28.45796204 33.59916687 C30.28957471 37.16074781 32.11939648 40.72323648 33.94702148 44.28686523 C34.63763609 45.63146169 35.32846899 46.97594606 36.01953125 48.3203125 C36.35188278 48.96748734 36.68423431 49.61466217 37.0266571 50.28144836 C38.67413376 53.47681406 40.34605447 56.65552166 42.06787109 59.81152344 C42.39526779 60.41181366 42.72266449 61.01210388 43.0599823 61.63058472 C43.95436585 63.26253752 44.85525882 64.89091806 45.7565918 66.51904297 C47 69 47 69 47 71 C43.37 71 39.74 71 36 71 C33.8585731 66.90926712 31.72247318 62.81581524 29.59130859 58.71972656 C28.86523637 57.32605774 28.13770244 55.93314944 27.40869141 54.54101562 C26.36237489 52.54233755 25.32130873 50.54100253 24.28125 48.5390625 C23.95314331 47.91504547 23.62503662 47.29102844 23.2869873 46.64810181 C21 42.22774341 21 42.22774341 21 40 C10.77 40 0.54 40 -10 40 C-10.66 41.98 -11.32 43.96 -12 46 C-12.87315655 47.78625607 -13.79122831 49.55116796 -14.75 51.29296875 C-15.2759375 52.25267578 -15.801875 53.21238281 -16.34375 54.20117188 C-17.16359375 55.6794043 -17.16359375 55.6794043 -18 57.1875 C-18.5465625 58.18458984 -19.093125 59.18167969 -19.65625 60.20898438 C-23.67446911 67.51170367 -23.67446911 67.51170367 -26 71 C-28.3828125 71.29296875 -28.3828125 71.29296875 -31.125 71.1875 C-32.49011719 71.14689453 -32.49011719 71.14689453 -33.8828125 71.10546875 C-34.58148438 71.07066406 -35.28015625 71.03585937 -36 71 C-34.501494 66.05343316 -32.44183999 61.60668218 -30.12109375 57.01171875 C-29.74896255 56.26791458 -29.37683136 55.52411041 -28.99342346 54.75776672 C-28.21113745 53.19620108 -27.42691918 51.63560206 -26.64086914 50.07592773 C-25.43365948 47.6798774 -24.23297226 45.28064264 -23.03320312 42.88085938 C-22.27121219 41.36178906 -21.5088554 39.84290221 -20.74609375 38.32421875 C-20.3856749 37.60449387 -20.02525604 36.88476898 -19.65391541 36.14323425 C-17.11609488 31.11609488 -17.11609488 31.11609488 -16 30 C-13.78312006 29.84126045 -11.56144702 29.74866163 -9.33984375 29.68359375 C-8.34314415 29.6524221 -8.34314415 29.6524221 -7.3263092 29.62062073 C-5.19681457 29.55506342 -3.06719332 29.49621215 -0.9375 29.4375 C0.50326847 29.39432061 1.94402399 29.35070651 3.38476562 29.30664062 C6.9230404 29.19937607 10.46145869 29.09812629 14 29 C13.49210937 27.99582031 12.98421875 26.99164063 12.4609375 25.95703125 C8.13702934 17.37664429 3.95841236 8.75648794 0 0 Z " fill="#D2171E" transform="translate(122,387)"/>
<path d="M0 0 C19.8 0 39.6 0 60 0 C60 3.3 60 6.6 60 10 C43.5 10 27 10 10 10 C10 16.6 10 23.2 10 30 C26.5 30 43 30 60 30 C60 33.63 60 37.26 60 41 C40.2 41 20.4 41 0 41 C0 27.47 0 13.94 0 0 Z " fill="#2648A1" transform="translate(515,417)"/>
<path d="M0 0 C3.3 0 6.6 0 10 0 C10 23.43 10 46.86 10 71 C6.7 71 3.4 71 0 71 C0 47.57 0 24.14 0 0 Z " fill="#2648A2" transform="translate(412,387)"/>
<path d="M0 0 C19.8 0 39.6 0 60 0 C60 3.63 60 7.26 60 11 C40.2 11 20.4 11 0 11 C0 7.37 0 3.74 0 0 Z " fill="#2648A2" transform="translate(515,387)"/>
<path d="" fill="#20409F" transform="translate(0,0)"/>
</svg>
