<?xml version="1.0" encoding="UTF-8"?>
<svg version="1.1" xmlns="http://www.w3.org/2000/svg" width="1470" height="1185">
<path d="M0 0 C84.48 0 168.96 0 256 0 C266.57834895 42.31339578 277.15501885 84.62284431 287.57323456 126.97522163 C293.21350823 149.90005715 298.89056023 172.81579139 304.56570435 195.7320137 C306.98685182 205.50875813 309.40759562 215.28560252 311.828125 225.0625 C312.22360535 226.65989863 312.22360535 226.65989863 312.6270752 228.28956795 C317.80156011 249.190946 322.96553445 270.09491006 328.125 291 C329.74210398 297.55210395 331.35924766 304.10419809 332.9765625 310.65625 C333.17796215 311.4721611 333.3793618 312.2880722 333.58686447 313.12870789 C338.88403905 334.5875864 344.19232963 356.04371566 349.5 377.5 C357.07889218 408.13792405 364.65108977 438.77748857 372.21420288 469.41931152 C377.57930502 491.1557031 382.95037661 512.89060864 388.32795715 534.62391663 C390.79779352 544.60573278 393.26715192 554.58766626 395.73461914 564.57006836 C396.09097584 566.01171875 396.09097584 566.01171875 396.45453167 567.4824934 C397.39883181 571.30273988 398.34311812 575.12298977 399.2872982 578.94326591 C401.87615662 589.41784884 404.46789761 599.89170201 407.06755161 610.36361122 C408.53118882 616.25978591 409.99199178 622.15665692 411.45027065 628.05415916 C412.26661781 631.35495672 413.08455388 634.65534025 413.90664673 637.95471191 C414.78440975 641.48050327 415.6565964 645.00762689 416.52734375 648.53515625 C416.7823465 649.55321854 417.03734924 650.57128082 417.30007935 651.62019348 C417.52710541 652.54482895 417.75413147 653.46946442 417.98803711 654.42211914 C418.18513779 655.21638809 418.38223846 656.01065704 418.58531189 656.82899475 C419 659 419 659 419 663 C419.66 663 420.32 663 421 663 C421.12820633 661.83810654 421.25641266 660.67621307 421.38850403 659.47911072 C421.90632696 655.3565056 422.76743355 651.36021711 423.78393555 647.33422852 C423.96382019 646.6059359 424.14370483 645.87764328 424.32904053 645.12728119 C424.92723868 642.71005087 425.53198055 640.29450794 426.13671875 637.87890625 C426.56818788 636.14084456 426.99923256 634.40267746 427.42988586 632.66441345 C428.35659025 628.92762357 429.28616986 625.19156526 430.21801758 621.45605469 C431.71046068 615.47313711 433.19654172 609.48865043 434.68164062 603.50390625 C436.49435552 596.20057522 438.30851517 588.89760621 440.12457466 581.59510612 C443.28725092 568.87711437 446.43873473 556.15638837 449.58203125 543.43359375 C449.80646093 542.52521318 450.03089062 541.61683262 450.2621212 540.68092537 C451.39030813 536.11430298 452.51827812 531.54762705 453.64614868 526.98092651 C455.69991698 518.66576027 457.75563534 510.35107604 459.81117821 502.03634834 C460.95752931 497.3992513 462.10375858 492.76212415 463.25 488.125 C463.70833275 486.27083319 464.16666608 484.41666652 464.625 482.5625 C464.9653125 481.18578125 464.9653125 481.18578125 465.3125 479.78125 C473.33333333 447.33333333 481.35416667 414.88541667 489.375 382.4375 C489.60187469 381.51968876 489.82874937 380.60187752 490.06249905 379.65625381 C490.52083553 377.80207443 490.97917204 375.94789504 491.43750858 374.09371567 C492.58329391 369.45849371 493.72907877 364.82327163 494.87486267 360.18804932 C496.9379354 351.84197417 499.00101141 343.49589984 501.06410503 335.14982986 C502.21070777 330.51134548 503.35730774 325.87286042 504.50390625 321.234375 C504.84440097 319.85692738 504.84440097 319.85692738 505.19177437 318.45165253 C508.38865467 305.51887298 511.58538076 292.58605532 514.78200912 279.6532135 C522.42744488 248.72157628 530.07300447 217.78996989 537.72265625 186.859375 C537.96073439 185.89672918 538.19881252 184.93408337 538.44410515 183.94226646 C540.84440959 174.2369302 543.24482216 164.53162069 545.64537716 154.8263464 C550.54310507 135.02506329 555.43960106 115.22347717 560.33244324 95.42098618 C561.08963331 92.35650471 561.84687116 89.29203505 562.60412598 86.22756958 C563.10131851 84.21551517 563.59851089 82.20346073 564.09570312 80.19140625 C564.46102016 78.71303693 564.46102016 78.71303693 564.83371735 77.20480156 C566.24397989 71.4975775 567.65390021 65.79026903 569.06354523 60.08289242 C569.94046549 56.53275245 570.81770768 52.98269208 571.69502258 49.43264961 C572.09196068 47.82616092 572.48877106 46.21964066 572.88542175 44.61308098 C576.55905219 29.73414719 580.28292976 14.86828095 584 0 C668.48 0 752.96 0 840 0 C835.40561705 20.67472327 835.40561705 20.67472327 833.35302734 28.89086914 C832.99990667 30.31604481 832.99990667 30.31604481 832.63965225 31.7700119 C831.8737896 34.85890436 831.1048789 37.94702892 830.3359375 41.03515625 C829.78563396 43.25230435 829.23553953 45.46950437 828.68563843 47.68675232 C827.52158497 52.37871163 826.35624107 57.07034764 825.18981934 61.76171875 C823.34987919 69.1622018 821.5129841 76.56343844 819.67675781 83.96484375 C819.37068855 85.19850615 819.06461929 86.43216854 818.74927521 87.70321465 C818.13253536 90.18909267 817.51580306 92.67497256 816.89907837 95.16085434 C815.97760292 98.87471299 815.05585196 102.58850316 814.1340332 106.30227661 C809.49525486 124.99228498 804.87502312 143.68679249 800.27074432 162.38532639 C798.68116844 168.84038317 797.09062627 175.29520198 795.5 181.75 C795.32293896 182.46855101 795.14587791 183.18710201 794.96345139 183.92742729 C789.90484933 204.45471813 784.82677442 224.97719765 779.75 245.5 C779.26089394 247.47725403 778.77178872 249.45450826 778.28268433 251.4317627 C776.32013518 259.36551162 774.35754074 267.29924933 772.3948822 275.23297119 C767.19865159 296.23812752 762.00507767 317.24394038 756.8125 338.25 C756.58503586 339.17016907 756.35757172 340.09033813 756.12321472 341.03839111 C749.00049682 369.8523128 741.8833678 398.66761142 734.76968384 427.48376465 C728.41711226 453.21665974 722.05889484 478.94815527 715.69747162 504.67886353 C708.83134476 532.45100567 701.96740544 560.2236849 695.11001587 587.99798584 C694.08923162 592.13241397 693.06830668 596.26680733 692.04733753 600.4011898 C687.95226204 616.98427568 683.8593887 633.5679007 679.77154541 650.152771 C678.13110583 656.80811866 676.48986926 663.46326972 674.84844208 670.11837387 C673.50565194 675.56298407 672.16393855 681.00785812 670.82303143 686.45293236 C669.99930501 689.79678977 669.17457032 693.14039787 668.34955025 696.48393631 C667.96630656 698.03800543 667.58348997 699.59217995 667.20112419 701.1464653 C666.67923179 703.26768129 666.1558446 705.38852297 665.63208008 707.50927734 C665.33932693 708.69725922 665.04657379 709.88524109 664.74494934 711.10922241 C664.23389735 713.09236082 663.64761193 715.05716422 663 717 C502.62 717 342.24 717 177 717 C156.22926478 635.07098884 156.22926478 635.07098884 147.37270355 599.15582275 C146.05626356 593.81962196 144.73717459 588.4840758 143.41845703 583.1484375 C141.02294512 573.45448148 138.62945811 563.76002714 136.23714638 554.06528091 C133.95598557 544.82104431 131.67326496 535.5771934 129.3901825 526.33343124 C126.74376451 515.6184643 124.09781265 504.90338245 121.453125 494.18798828 C115.18452089 468.79015148 108.90642605 443.3946685 102.625 418 C102.13898679 416.03511567 101.65297401 414.07023123 101.16696167 412.10534668 C100.68088789 410.14021809 100.19481408 408.17508951 99.70874023 406.20996094 C98.97976628 403.26282022 98.25079304 400.31567933 97.52182198 397.3685379 C97.03571337 395.4032613 96.54960268 393.43798522 96.06348991 391.47270966 C90.68602251 369.73233475 85.31143346 347.99124867 79.9375 326.25 C79.48114041 324.40372715 79.02478054 322.55745436 78.56842041 320.71118164 C76.74535917 313.33569892 74.92231538 305.96021189 73.0993042 298.5847168 C69.90097293 285.64498623 66.70249484 272.70529196 63.50390625 259.765625 C63.27691481 258.84734673 63.04992336 257.92906845 62.81605339 256.98296356 C61.66937331 252.34415132 60.52269075 247.70533968 59.37600708 243.06652832 C57.31313638 234.72135509 55.25028759 226.37617644 53.18743706 218.03099823 C52.04162559 213.39566527 50.89581273 208.76033265 49.75 204.125 C49.29166666 202.27083333 48.83333333 200.41666667 48.375 198.5625 C48.148125 197.6446875 47.92125 196.726875 47.6875 195.78125 C47 193 46.3125 190.21875 45.625 187.4375 C45.39811902 186.51966421 45.17123804 185.60182842 44.93748188 184.65617943 C44.47920725 182.80224842 44.02093432 180.94831699 43.56266308 179.09438515 C42.41594551 174.45535946 41.26919835 169.81634108 40.12239075 165.17733765 C38.07041881 156.87669111 36.01863833 148.57599755 33.96799564 140.27502251 C32.83688579 135.69633233 31.70559825 131.11768606 30.57421875 126.5390625 C30.2373684 125.17582792 30.2373684 125.17582792 29.893713 123.78505325 C26.73252817 110.99320895 23.56292936 98.2034716 20.38772583 85.4151001 C18.59959347 78.21310629 16.81365527 71.01056886 15.02820015 63.80791092 C13.57548746 57.94843576 12.11987006 52.0896926 10.66200733 46.23149681 C9.76082912 42.60719984 8.86249537 38.98220209 7.96491051 35.3570137 C7.55183864 33.69114437 7.13761622 32.02555979 6.72208595 30.36030197 C6.14854001 28.06112681 5.57931564 25.76091863 5.01098633 23.46044922 C4.69317703 22.18112518 4.37536774 20.90180115 4.04792786 19.58370972 C2.56230098 13.08547388 1.30728957 6.53644783 0 0 Z " fill="#EC303C" transform="translate(63,70)"/>
<path d="M0 0 C84.15 0 168.3 0 255 0 C255 236.61 255 473.22 255 717 C170.85 717 86.7 717 0 717 C0 480.39 0 243.78 0 0 Z " fill="#EC303C" transform="translate(985,70)"/>
<path d="M0 0 C0.67820801 0.1556543 1.35641602 0.31130859 2.05517578 0.47167969 C19.77951677 4.65340554 36.6314765 12.85302991 51 24 C51.92683594 24.70640625 52.85367187 25.4128125 53.80859375 26.140625 C81.36376818 47.87208171 100.67439288 79.52626149 105.65625 114.54296875 C109.44517681 152.64751683 102.48756094 190.54637876 78 221 C77.59555664 221.50982422 77.19111328 222.01964844 76.77441406 222.54492188 C53.25279793 252.03101102 20.04224662 269.99376091 -17.36328125 274.5625 C-54.53011342 278.47229878 -91.88054014 267.38621831 -121 244 C-129.57432084 236.79693164 -137.35729383 229.04280803 -144 220 C-144.39638672 219.46213867 -144.79277344 218.92427734 -145.20117188 218.37011719 C-159.06315135 199.30719222 -168.65885368 176.58927177 -171 153 C-171.06558105 152.34451172 -171.13116211 151.68902344 -171.19873047 151.01367188 C-174.48723795 115.71544773 -165.62244414 78.8401449 -143.33984375 50.76171875 C-119.00005489 22.03345377 -87.39060564 1.43399299 -49.29858398 -2.83227539 C-32.86655688 -4.0312985 -16.05832732 -3.88891305 0 0 Z " fill="#FAD20F" transform="translate(1145,872)"/>
<path d="M0 0 C5.28 0 10.56 0 16 0 C17.95747677 5.72907011 19.91466228 11.4582396 21.87158203 17.1875 C22.5368672 19.13511828 23.2022309 21.08270973 23.86767578 23.03027344 C24.82605479 25.8352153 25.78414811 28.64025462 26.7421875 31.4453125 C27.03809784 32.31116974 27.33400818 33.17702698 27.6388855 34.06912231 C29.10890138 38.37411222 30.56882074 42.68189262 32 47 C33.54507402 42.7095541 35.08636749 38.41775962 36.625 34.125 C36.85242889 33.4907309 37.07985779 32.85646179 37.31417847 32.20297241 C40.42098928 23.52939687 43.45909123 14.83860622 46.28564453 6.06884766 C47.90036962 1.09963038 47.90036962 1.09963038 49 0 C53.62 0 58.24 0 63 0 C63 19.8 63 39.6 63 60 C60.03 60 57.06 60 54 60 C53.67 44.49 53.34 28.98 53 13 C51.85660156 16.30902344 50.71320313 19.61804688 49.53515625 23.02734375 C48.43046618 26.21793423 47.32477955 29.40817768 46.21899414 32.59838867 C45.4487434 34.82231086 44.67953547 37.04659451 43.91137695 39.27124023 C42.80952022 42.46172289 41.70396682 45.65090318 40.59765625 48.83984375 C40.25283707 49.84087631 39.90801788 50.84190887 39.55274963 51.87327576 C39.07236488 53.25459435 39.07236488 53.25459435 38.58227539 54.66381836 C38.30025772 55.47878281 38.01824005 56.29374725 37.72767639 57.13340759 C37 59 37 59 36 60 C33.03 60 30.06 60 27 60 C21.72 44.82 16.44 29.64 11 14 C10.67 29.18 10.34 44.36 10 60 C6.7 60 3.4 60 0 60 C0 40.2 0 20.4 0 0 Z " fill="#E8323D" transform="translate(1336,57)"/>
<path d="M0 0 C17.16 0 34.32 0 52 0 C52 0.99 52 1.98 52 3 C45.07 3 38.14 3 31 3 C31 21.81 31 40.62 31 60 C27.7 60 24.4 60 21 60 C21 41.19 21 22.38 21 3 C14.07 3 7.14 3 0 3 C0 2.01 0 1.02 0 0 Z " fill="#E5333E" transform="translate(1277,57)"/>
</svg>
