<?xml version="1.0" encoding="UTF-8"?>
<svg version="1.1" xmlns="http://www.w3.org/2000/svg" width="935" height="935">
<path d="M0 0 C0.78564331 0.06316406 1.57128662 0.12632813 2.3807373 0.19140625 C76.22737591 6.14789882 161.22598904 17.50179785 225 58 C226.53914062 58.96486328 226.53914062 58.96486328 228.109375 59.94921875 C247.86143385 72.70784559 267.33620419 89.47376091 272.53280139 113.45920074 C273.1802826 118.36632359 273.1397278 123.20826757 273.13142776 128.15278816 C273.13450672 129.85206302 273.13450672 129.85206302 273.13764787 131.58566666 C273.14332792 135.40332351 273.14185937 139.22094439 273.14044189 143.03860474 C273.14247501 145.79472347 273.14599909 148.55083985 273.1494453 151.30695713 C273.15702343 158.10117943 273.15921826 164.89539387 273.15977435 171.68961995 C273.16068817 179.82690322 273.16735624 187.96417922 273.17412117 196.10145936 C273.19018143 215.76886537 273.1960844 235.4362706 273.20086992 255.10368199 C273.20320576 264.40721958 273.20680839 273.71075656 273.2105653 283.01429368 C273.22340058 314.85997763 273.23411998 346.70566125 273.2375679 378.55134773 C273.23778953 380.55044112 273.23801132 382.54953451 273.23823325 384.54862791 C273.23845389 386.55255325 273.23867438 388.5564786 273.2388947 390.56040394 C273.23933725 394.58063388 273.23978437 398.60086381 273.24023438 402.62109375 C273.24034377 403.61787709 273.24045316 404.61466042 273.24056586 405.64164931 C273.24419683 437.96539451 273.2601185 470.28911728 273.28342474 502.61285389 C273.30801932 536.78587485 273.32174056 570.958883 273.32293582 605.13191307 C273.32310727 608.88305593 273.3233227 612.63419879 273.32357025 616.38534164 C273.32362602 617.30898124 273.32368179 618.23262083 273.32373925 619.1842495 C273.32488999 634.04959185 273.33591392 648.91491118 273.35045731 663.78024576 C273.36482181 678.72105633 273.36805954 693.6618374 273.36001733 708.60265298 C273.35556093 717.47844911 273.35942212 726.35415002 273.37525584 735.22993363 C273.38500809 741.16139234 273.38382523 747.09278436 273.37381961 753.02424246 C273.3684293 756.40216816 273.36937437 759.77976232 273.38032833 763.15769662 C273.39140027 766.80268432 273.38394589 770.44719061 273.3719368 774.09216499 C273.37953199 775.13223284 273.38712718 776.1723007 273.39495254 777.24388576 C273.25680684 796.67610709 264.27241481 811.53258963 251 825 C247.49755794 828.2547446 243.85392799 831.17343127 240 834 C239.00484375 834.73605469 238.0096875 835.47210937 236.984375 836.23046875 C170.70530057 883.65428925 79.48498019 896.1671092 -216.67724609 892.91235352 C-277.88774255 882.57088366 -361.87246067 865.09377935 -400.875 812 C-408.16159183 801.00895381 -411.30780599 790.67530797 -411.25726891 777.6332531 C-411.26077498 776.4894187 -411.26428105 775.34558431 -411.26789337 774.16708827 C-411.2755949 770.99160606 -411.27435588 767.81627247 -411.26933783 764.64078953 C-411.26606857 761.18619453 -411.27435594 757.73162397 -411.28115618 754.27703679 C-411.29146204 748.22205512 -411.29429896 742.16710543 -411.29224396 736.11211586 C-411.28919547 727.10787737 -411.29751461 718.10367429 -411.30799321 709.09944268 C-411.32734385 692.08172505 -411.33296184 675.06401945 -411.33410732 658.04629211 C-411.33502617 644.90392781 -411.3391416 631.76156824 -411.34550858 618.61920547 C-411.34730365 614.83708704 -411.34908328 611.0549686 -411.35085833 607.27285016 C-411.35152148 605.86250051 -411.35152148 605.86250051 -411.35219802 604.42365895 C-411.36450814 577.97291458 -411.37239898 551.52217185 -411.37151146 525.07142448 C-411.37146472 523.5752634 -411.37146472 523.5752634 -411.37141704 522.04887684 C-411.37125083 516.99336537 -411.37105274 511.93785391 -411.37084763 506.88234244 C-411.37080774 505.87829011 -411.37076785 504.87423778 -411.37072675 503.83975962 C-411.37064587 501.80932002 -411.37056228 499.77888043 -411.37047596 497.74844083 C-411.36925058 466.16137704 -411.3842606 434.57435619 -411.41162109 402.98730469 C-411.44234428 367.50343271 -411.45955342 332.01958895 -411.45769465 296.53570282 C-411.45754539 292.75169826 -411.45744797 288.96769369 -411.45738602 285.18368912 C-411.45736271 284.25196454 -411.4573394 283.32023997 -411.45731538 282.36028132 C-411.45725384 267.36779843 -411.4700245 252.37535282 -411.48725055 237.38288101 C-411.50420695 222.31334273 -411.50618083 207.24385899 -411.4930319 192.17431645 C-411.4856426 183.22315961 -411.48930008 174.27216846 -411.50891658 165.32102918 C-411.52091967 159.3380936 -411.51832187 153.35527797 -411.50397559 147.37234788 C-411.4962151 143.96578987 -411.4968714 140.55981343 -411.51089029 137.15323673 C-411.60135685 113.60995118 -408.37909347 96.60137735 -391.36328125 79.234375 C-381.38945527 69.44606749 -370.1882572 61.74105468 -358 55 C-357.2560498 54.57895996 -356.51209961 54.15791992 -355.74560547 53.72412109 C-291.35151776 17.45527342 -211.82967268 5.52876528 -139 0 C-138.33313171 -0.05220703 -137.66626343 -0.10441406 -136.97918701 -0.15820312 C-91.73450202 -3.68344506 -45.232023 -3.73313739 0 0 Z " fill="#2686CE" transform="translate(528,16)"/>
<path d="M0 0 C0.33 0 0.66 0 1 0 C1.21914062 0.81082031 1.43828125 1.62164062 1.6640625 2.45703125 C5.6283539 16.29982115 11.90258816 25.95744677 22 36 C22.86753906 36.86753906 23.73507813 37.73507813 24.62890625 38.62890625 C54.93859489 67.49312538 100.71456192 82.69132551 140.54443359 92.39746094 C142.6554175 92.91544745 144.76006253 93.45914675 146.86328125 94.0078125 C150.89718958 95.05706953 154.94425867 96.03969462 159 97 C160.0617041 97.25394531 161.1234082 97.50789063 162.21728516 97.76953125 C182.93987896 102.67375715 203.64386 106.12250745 224.77270508 108.72393799 C226.95140829 108.9939773 229.12910825 109.27098347 231.30664062 109.55029297 C248.72966865 111.77633648 266.1674109 113.43782775 283.6875 114.6875 C284.52056671 114.74834778 285.35363342 114.80919556 286.21194458 114.87188721 C303.13840737 116.08973287 320.01789665 116.46930927 337 117 C337 175.41 337 233.82 337 294 C331.39 295.65 325.78 297.3 320 299 C317.05252085 300.20841821 314.39478716 301.33180346 311.625 302.8125 C310.97128418 303.151604 310.31756836 303.49070801 309.64404297 303.84008789 C303.67752793 307.01680647 298.24149881 310.72854529 293 315 C291.74123047 316.01320313 291.74123047 316.01320313 290.45703125 317.046875 C268.20717049 335.95063267 257.75929286 364.0382621 255.17871094 392.51049805 C252.99723434 422.89918227 258.4931519 454.96170458 278.91015625 478.734375 C279.59980469 479.48203125 280.28945313 480.2296875 281 481 C282.17369141 482.27617188 282.17369141 482.27617188 283.37109375 483.578125 C293.19917895 493.82018571 304.28987227 500.05241864 317 506 C318.04800781 506.51046875 319.09601563 507.0209375 320.17578125 507.546875 C325.59867887 509.60746531 331.34736771 510.6955464 337 512 C337 598.79 337 685.58 337 775 C291.6085364 775 291.6085364 775 276.1875 773.75 C274.38217615 773.61276234 272.57683715 773.4757238 270.77148438 773.33886719 C192.04276741 767.21642607 98.14323723 754.61831191 14 688 C4.4087904 676.22483376 -0.3221719 663.89692502 -0.24609566 648.8312006 C-0.24840335 647.70879706 -0.25071103 646.58639352 -0.25308865 645.42997774 C-0.25839921 641.6539479 -0.24939559 637.87808724 -0.24050903 634.10206604 C-0.2402675 631.37365427 -0.24304703 628.64524746 -0.24568737 625.91683716 C-0.24983282 619.97713978 -0.24655075 614.03748248 -0.23841095 608.09778976 C-0.22634099 599.26569064 -0.22573934 590.43361679 -0.22749493 581.60151092 C-0.23012292 566.74452647 -0.22343919 551.8875598 -0.21146011 537.03058052 C-0.19962863 522.31896438 -0.19192874 507.60735565 -0.18975449 492.89573479 C-0.18961701 491.98122709 -0.18947953 491.06671939 -0.18933788 490.12449934 C-0.18866122 485.48023242 -0.18805845 480.83596548 -0.18748413 476.19169854 C-0.1832826 443.2909613 -0.16980591 410.39023374 -0.15087891 377.48950195 C-0.13251207 345.52563529 -0.11834385 313.56177127 -0.10986328 281.59790039 C-0.10960023 280.61274417 -0.10933718 279.62758795 -0.10906615 278.61257852 C-0.10642913 268.71929192 -0.1038775 258.82600531 -0.10138843 248.93271868 C-0.09631592 228.77870827 -0.09067342 208.62469803 -0.08468628 188.47068787 C-0.0844117 187.54402621 -0.08413712 186.61736455 -0.08385422 185.66262223 C-0.06545093 123.77507746 -0.03376029 61.88753807 0 0 Z " fill="#0072C5" transform="translate(117,145)"/>
<path d="M0 0 C1.04079271 0.00040031 1.04079271 0.00040031 2.10261154 0.00080872 C45.22703644 0.02159512 87.83949187 2.78707322 130.45117188 9.70507812 C133.32447842 10.1692421 136.20066807 10.60930797 139.078125 11.046875 C180.88840255 17.6190591 232.97258594 28.89920989 263.4375 60.1875 C264.07300781 60.81398437 264.70851563 61.44046875 265.36328125 62.0859375 C270.46734609 67.48130132 273.57542079 74.28657012 273.875 81.75 C273.40489559 90.3635259 270.02037098 96.77232027 264.4375 103.1875 C263.89609375 103.82300781 263.3546875 104.45851563 262.796875 105.11328125 C229.22535407 141.5310833 164.88752674 149.11363433 118.4375 156.1875 C117.72358093 156.29642578 117.00966187 156.40535156 116.27410889 156.51757812 C78.91503084 162.17161272 41.61386665 163.67836541 3.87512207 163.5100708 C-0.22869378 163.49657625 -4.33240249 163.50192461 -8.43623066 163.50693321 C-30.56335298 163.52736339 -52.51519413 163.23191659 -74.5625 161.1875 C-75.41928345 161.11197906 -76.27606689 161.03645813 -77.15881348 160.95864868 C-82.15555901 160.51652767 -87.14112825 160.00590005 -92.125 159.4375 C-92.85755005 159.35513092 -93.5901001 159.27276184 -94.34484863 159.18789673 C-228.05152905 143.99977009 -228.05152905 143.99977009 -263.94140625 101.39453125 C-269.96504308 93.19367629 -271.53731918 85.21093487 -270.5625 75.1875 C-266.10086369 59.99617245 -251.16918338 49.7223815 -238.01000977 42.40551758 C-227.2444707 36.62547332 -216.09452867 32.18268242 -204.5625 28.1875 C-203.70350098 27.8874707 -202.84450195 27.58744141 -201.95947266 27.27832031 C-159.27152936 12.55391031 -113.87266174 6.05238867 -69 2.4375 C-68.2696051 2.37842468 -67.53921021 2.31934937 -66.78668213 2.25848389 C-61.71469409 1.85552528 -56.6405321 1.50485554 -51.5625 1.1875 C-50.41979141 1.1149147 -50.41979141 1.1149147 -49.2539978 1.04086304 C-32.84530605 0.03465674 -16.43437113 -0.01418965 0 0 Z " fill="#B7D432" transform="translate(457.5625,48.8125)"/>
<path d="M0 0 C0.78564331 0.06316406 1.57128662 0.12632813 2.3807373 0.19140625 C76.22737591 6.14789882 161.22598904 17.50179785 225 58 C226.53914062 58.96486328 226.53914062 58.96486328 228.109375 59.94921875 C245.78538823 71.36684659 264.7267951 86.82592219 271.40625 107.69921875 C273.7067436 120.488147 273.25374535 133.43136674 267 145 C266.50371094 145.92683594 266.00742187 146.85367188 265.49609375 147.80859375 C251.1670082 172.15077523 225.76541981 186.31841961 201 198 C200.29794434 198.33241699 199.59588867 198.66483398 198.87255859 199.00732422 C187.18364265 204.4933151 175.24347818 208.92101816 163 213 C162.26370361 213.24766113 161.52740723 213.49532227 160.76879883 213.75048828 C141.08891642 220.35441762 121.25821121 225.52682861 101 230 C99.23112427 230.39650757 99.23112427 230.39650757 97.42651367 230.80102539 C89.79477192 232.48300554 82.17391582 233.84104183 74.4375 234.9375 C73.28113037 235.1037085 72.12476074 235.26991699 70.93334961 235.44116211 C68.50241588 235.78937296 66.07117747 236.1354629 63.63964844 236.47949219 C60.1140207 236.98369385 56.59215419 237.50913959 53.0703125 238.0390625 C34.66587147 240.75785639 16.24382313 242.45630787 -2.30426025 243.79788208 C-5.31981921 244.02397902 -8.33326135 244.27216363 -11.34716797 244.51928711 C-29.85179724 245.98150821 -48.24622686 246.36313811 -66.79784393 246.31805801 C-69.16643848 246.31240103 -71.53502581 246.3095905 -73.90362549 246.30697632 C-99.03201976 246.26672533 -123.99098641 245.63342859 -149 243 C-149.87430664 242.90807373 -150.74861328 242.81614746 -151.64941406 242.72143555 C-163.23062408 241.49007615 -174.788461 240.09991919 -186.33789062 238.60107422 C-189.26754001 238.22087983 -192.1979336 237.8506141 -195.13085938 237.49658203 C-218.54297222 234.67026028 -241.47124975 229.90222407 -264.28515625 223.95629883 C-266.72344957 223.32861777 -269.16656717 222.71933048 -271.61450195 222.13037109 C-281.30182449 219.79339994 -290.74580468 216.99348101 -300.1875 213.8125 C-300.90167084 213.57322784 -301.61584167 213.33395569 -302.35165405 213.08743286 C-314.51648169 208.9978592 -326.38560689 204.48313949 -338 199 C-338.85368164 198.5992627 -339.70736328 198.19852539 -340.58691406 197.78564453 C-368.83553169 184.40334528 -396.83465016 166.75062776 -409.0546875 136.7265625 C-413.56062445 123.73009973 -411.26168518 110.17627478 -405.59765625 97.98046875 C-395.28421082 78.74047152 -376.70423882 65.34489957 -358 55 C-357.2560498 54.57895996 -356.51209961 54.15791992 -355.74560547 53.72412109 C-291.35151776 17.45527342 -211.82967268 5.52876528 -139 0 C-138.33313171 -0.05220703 -137.66626343 -0.10441406 -136.97918701 -0.15820312 C-91.73450202 -3.68344506 -45.232023 -3.73313739 0 0 Z M-137 35 C-137.75277222 35.06316406 -138.50554443 35.12632813 -139.28112793 35.19140625 C-184.19827462 38.9791799 -229.17681025 45.52280045 -272 60 C-272.87430664 60.29374512 -273.74861328 60.58749023 -274.64941406 60.89013672 C-298.2740074 68.93167305 -326.34682989 79.89276463 -339.01171875 102.90625 C-341.99559726 109.2278266 -342.07167248 116.8036921 -340.3515625 123.5390625 C-331.91033136 143.95674124 -309.87322208 154.74787853 -290.67333984 163 C-250.23340621 179.76877588 -206.45456841 187.17243047 -163.1875 192.125 C-162.49291687 192.20576782 -161.79833374 192.28653564 -161.08270264 192.36975098 C-155.72805411 192.98565864 -150.36761862 193.51080103 -145 194 C-144.04891357 194.08933807 -143.09782715 194.17867615 -142.11791992 194.27072144 C-120.02545889 196.2760055 -97.9593736 196.34271287 -75.79345703 196.31567383 C-71.69894376 196.31105833 -67.6047287 196.31792247 -63.51025391 196.33618164 C-26.00220657 196.50177874 10.8756173 194.46498623 48 189 C49.29373535 188.81179687 50.5874707 188.62359375 51.92041016 188.4296875 C68.91141738 185.93773235 85.64386393 182.77414969 102.31738281 178.65380859 C104.58945793 178.10005749 106.86350565 177.57917842 109.1484375 177.08203125 C139.7229495 170.13920497 176.46884462 158.11955752 197 133 C201.59654731 125.61573186 203.92969701 118.70907347 203 110 C201.01084909 101.54610862 196.05368631 95.98455775 190 90 C189.34386719 89.32195312 188.68773437 88.64390625 188.01171875 87.9453125 C141.17547626 42.65512074 45.65989109 37.53848486 -16 34 C-16.72014282 33.95763214 -17.44028564 33.91526428 -18.18225098 33.87161255 C-34.9917749 32.91007077 -51.79204002 32.79792418 -68.625 32.8125 C-69.66392899 32.81290031 -69.66392899 32.81290031 -70.72384644 32.81330872 C-92.87039205 32.82399767 -114.92491358 33.10312918 -137 35 Z " fill="#FDFDFD" transform="translate(528,16)"/>
<path d="M0 0 C2.04269542 -0.00217771 4.08484166 -0.02036179 6.12744141 -0.03930664 C17.17423172 -0.08843585 27.63607581 0.96692415 38.06103516 4.74780273 C38.77283936 5.00537354 39.48464355 5.26294434 40.21801758 5.52832031 C53.81661482 10.66696765 64.58989465 17.9484374 74.81103516 28.18530273 C75.46330078 28.76666992 76.11556641 29.34803711 76.78759766 29.94702148 C94.3669787 45.88084403 102.96622479 73.29341052 104.81103516 96.18530273 C106.13565639 128.45204709 102.35275965 161.35730072 80.17431641 186.63842773 C79.39443359 187.47889648 78.61455078 188.31936523 77.81103516 189.18530273 C76.97958984 190.10827148 76.14814453 191.03124023 75.29150391 191.98217773 C65.94026649 201.89476323 54.65844465 209.45079442 41.81103516 214.18530273 C41.15103516 214.18530273 40.49103516 214.18530273 39.81103516 214.18530273 C40.52646484 214.89944336 41.24189453 215.61358398 41.97900391 216.34936523 C43.80112571 218.17084613 45.61467383 219.99975269 47.42431641 221.83374023 C48.31505859 222.73350586 49.20580078 223.63327148 50.12353516 224.56030273 C51.00654297 225.45491211 51.88955078 226.34952148 52.79931641 227.27124023 C55.65799952 230.09583343 58.67990087 232.71110602 61.71606445 235.34204102 C65.24861551 238.45015901 68.64864848 241.69653425 72.06103516 244.93530273 C81.32402951 253.68863015 90.64182256 262.36453293 100.26416016 270.72436523 C100.77462891 271.20647461 101.28509766 271.68858398 101.81103516 272.18530273 C101.81103516 272.51530273 101.81103516 272.84530273 101.81103516 273.18530273 C93.6223505 273.44114804 85.43535708 273.63609246 77.2436533 273.75523663 C73.4389048 273.81244858 69.63690587 273.88990641 65.83374023 274.01513672 C62.15708285 274.13543169 58.4830532 274.20057756 54.80457878 274.22895241 C53.40767985 274.2491459 52.01091148 274.28858743 50.61514473 274.34833336 C39.70272224 274.79649223 39.70272224 274.79649223 35.01806641 270.80647278 C32.73991109 268.02869235 30.77360504 265.19059925 28.81103516 262.18530273 C27.60925387 260.80062112 26.38312326 259.4359678 25.11572266 258.11108398 C24.54877686 257.51062256 23.98183105 256.91016113 23.39770508 256.29150391 C22.55042847 255.40362183 22.55042847 255.40362183 21.68603516 254.49780273 C20.47029415 253.20958642 19.25543881 251.92053365 18.04150391 250.63061523 C17.47737793 250.03152344 16.91325195 249.43243164 16.33203125 248.81518555 C13.97621337 246.29071682 11.7075523 243.69669861 9.45556641 241.07983398 C6.69539476 237.9000638 3.85272669 234.79438547 1.02197266 231.67749023 C-1.18896484 229.18530273 -1.18896484 229.18530273 -3.27099609 225.98217773 C-6.27246067 222.36819291 -9.70551978 222.24013913 -14.1965332 221.79589844 C-15.20466064 221.71815186 -16.21278809 221.64040527 -17.25146484 221.56030273 C-19.33827732 221.34059566 -21.42425648 221.11281391 -23.50927734 220.87670898 C-24.50088867 220.76472168 -25.4925 220.65273438 -26.51416016 220.53735352 C-45.13486423 218.08654526 -62.89480381 205.70267639 -76.18896484 193.18530273 C-77.11515625 192.37319336 -77.11515625 192.37319336 -78.06005859 191.54467773 C-87.99071387 182.46260039 -94.05616172 169.4075389 -99.18896484 157.18530273 C-99.58986328 156.23655273 -99.99076172 155.28780273 -100.40380859 154.31030273 C-108.93024391 131.65894251 -107.60511026 105.53749147 -103.18896484 82.18530273 C-103.06038086 81.50274414 -102.93179687 80.82018555 -102.79931641 80.11694336 C-99.55350384 63.9126577 -91.85011065 48.72892359 -81.18896484 36.18530273 C-80.49287109 35.32807617 -79.79677734 34.47084961 -79.07958984 33.58764648 C-63.17630118 14.81131845 -40.01113573 3.25808945 -15.70825195 0.37939453 C-10.48098779 -0.02332618 -5.24028998 -0.0006234 0 0 Z " fill="#FDFEFE" transform="translate(477.18896484375,436.814697265625)"/>
<path d="M0 0 C1.86775007 0.19243134 3.73644006 0.3756743 5.60516357 0.55841064 C11.9393807 1.18571455 18.25071031 1.92377156 24.56072998 2.75909424 C27.70130609 3.16810788 30.84430818 3.55056056 33.98890686 3.9271698 C51.19466146 6.00707494 68.11458675 8.83972058 85.02752686 12.63995361 C85.84167053 12.82100647 86.65581421 13.00205933 87.49462891 13.18859863 C104.38467652 16.97683236 120.73160263 22.21753702 136.96502686 28.20245361 C136.96502686 28.86245361 136.96502686 29.52245361 136.96502686 30.20245361 C105.81221384 42.0033365 73.78512264 48.20428752 40.96502686 53.20245361 C40.25110779 53.31137939 39.53718872 53.42030518 38.80163574 53.53253174 C1.44255769 59.18656634 -35.85860649 60.69331902 -73.59735107 60.52502441 C-77.70116693 60.51152986 -81.80487564 60.51687822 -85.9087038 60.52188683 C-108.03582613 60.542317 -129.98766728 60.24687021 -152.03497314 58.20245361 C-152.89175659 58.12693268 -153.74854004 58.05141174 -154.63128662 57.97360229 C-159.62803216 57.53148128 -164.61360139 57.02085366 -169.59747314 56.45245361 C-170.69629822 56.32889999 -170.69629822 56.32889999 -171.81732178 56.20285034 C-258.83235789 46.31856196 -258.83235789 46.31856196 -289.03497314 30.20245361 C-289.03497314 29.54245361 -289.03497314 28.88245361 -289.03497314 28.20245361 C-285.36830648 26.86912028 -281.70163981 25.53578695 -278.03497314 24.20245361 C-277.23510986 23.89992676 -276.43524658 23.5973999 -275.61114502 23.28570557 C-246.42816857 12.37875143 -213.90263247 7.02410659 -183.03497314 3.20245361 C-182.09250732 3.08450439 -181.1500415 2.96655518 -180.17901611 2.84503174 C-172.49624068 1.90641762 -164.80301839 1.12391473 -157.09729004 0.3996582 C-155.01432333 0.20047902 -152.93263583 -0.00934566 -150.85089111 -0.22088623 C-101.237093 -5.1824062 -49.59530968 -5.12119874 0 0 Z " fill="#7FBA00" transform="translate(535.0349731445313,151.79754638671875)"/>
<path d="M0 0 C1.23904083 -0.01455482 1.23904083 -0.01455482 2.50311279 -0.02940369 C5.16618716 -0.05428274 7.82900863 -0.06691958 10.4921875 -0.07421875 C11.39535706 -0.07683716 12.29852661 -0.07945557 13.22906494 -0.08215332 C30.72163743 -0.08760818 44.97132853 1.67993766 61.3671875 8.23828125 C61.3671875 22.75828125 61.3671875 37.27828125 61.3671875 52.23828125 C57.92823369 50.86269973 54.70744693 49.42771646 51.41064453 47.77563477 C38.53240854 41.44493654 26.73480089 38.90437684 12.4296875 38.73828125 C11.37539551 38.71967041 10.32110352 38.70105957 9.23486328 38.68188477 C0.90932075 38.74980262 -6.24524278 40.54726497 -12.5703125 46.23828125 C-13.11558594 46.71265625 -13.66085937 47.18703125 -14.22265625 47.67578125 C-18.18623521 52.06755849 -18.06220696 56.4417678 -17.9375 62.13671875 C-17.31701878 68.45289938 -15.03949239 73.22687177 -10.5078125 77.67578125 C-1.3000192 85.06939967 10.00531408 90.12050629 20.5546875 95.30078125 C41.21018011 105.49453356 59.42269447 117.14400005 68.45703125 139.31640625 C73.52749735 155.59412575 71.15143359 174.0433013 63.6171875 188.98828125 C54.34132268 204.94276874 38.73533866 214.08955391 21.3671875 219.23828125 C-7.21744269 226.69819827 -42.19852703 224.45542398 -68.6328125 211.23828125 C-68.6328125 195.39828125 -68.6328125 179.55828125 -68.6328125 163.23828125 C-57.6328125 170.23828125 -57.6328125 170.23828125 -54.49609375 172.27734375 C-38.01861949 182.52214398 -17.05190844 186.25327982 2.04296875 182.51953125 C8.70507054 180.23432897 13.61165631 177.22268428 17.2421875 171.05078125 C19.04912281 164.92727825 19.49077241 159.09306208 16.9296875 153.11328125 C9.30176764 140.09635317 -7.32954354 133.78713652 -20.32324219 127.48413086 C-39.00448216 118.39119233 -57.83379357 106.18384831 -65.91015625 86.0546875 C-71.08459915 71.01013288 -72.48250225 52.98835063 -65.6328125 38.23828125 C-56.76850823 21.49708889 -42.93266746 10.0252263 -24.96875 4.01171875 C-16.55444758 1.54942815 -8.74652419 0.08480213 0 0 Z " fill="#FDFEFE" transform="translate(279.6328125,436.76171875)"/>
<path d="M0 0 C16.17 0 32.34 0 49 0 C49 58.08 49 116.16 49 176 C75.07 176 101.14 176 128 176 C128 189.2 128 202.4 128 216 C85.76 216 43.52 216 0 216 C0 144.72 0 73.44 0 0 Z " fill="#FCFDFE" transform="translate(618,440)"/>
<path d="M0 0 C14.5068808 13.32315962 20.25585862 32.68295726 21.12768555 51.79980469 C21.76035722 75.82085328 19.25961548 96.88378942 2.25 115.25 C-8.9697313 125.95089979 -22.34300859 128.50554683 -37.29150391 128.421875 C-48.32247151 128.121336 -56.24961301 124.60406566 -65 118 C-66.24136719 117.07380859 -66.24136719 117.07380859 -67.5078125 116.12890625 C-74.92523099 109.79271021 -79.48866964 100.95255223 -83 92 C-83.29648437 91.26265625 -83.59296875 90.5253125 -83.8984375 89.765625 C-91.62532551 68.80357238 -90.0966843 41.47661416 -81.42578125 21.015625 C-74.71970593 7.69726562 -63.32213344 -4.14462597 -49 -9 C-31.82863491 -14.18996354 -14.05600248 -11.09106446 0 0 Z " fill="#2687CF" transform="translate(510,489)"/>
<path d="M0 0 C0 42.24 0 84.48 0 128 C-11.99882263 123.20047095 -19.40047585 113.90988133 -24.8125 102.375 C-25.56291727 100.59212945 -26.2936972 98.80080255 -27 97 C-27.29648437 96.26265625 -27.59296875 95.5253125 -27.8984375 94.765625 C-35.62532551 73.80357238 -34.0966843 46.47661416 -25.42578125 26.015625 C-21.48608143 18.19132606 -10.08501874 0 0 0 Z " fill="#0172C6" transform="translate(454,484)"/>
<path d="M0 0 C0.66 0.33 1.32 0.66 2 1 C-4.27 7.27 -10.54 13.54 -17 20 C-17.66 19.67 -18.32 19.34 -19 19 C-6.51480638 5.18223235 -6.51480638 5.18223235 0 0 Z " fill="#A7A7A7" transform="translate(147,86)"/>
</svg>
